# IdleCraft mine structure
# Units: 1 game block = 0.9 OBJ units
mtllib idlecraft-mine.mtl
o mine-opening
usemtl mine-darkness
v 0.35100001096725464 1.3950000047683715 0.5760000014007092
v 0.35100001096725464 1.3950000047683715 0.46799999859929087
v 0.35100001096725464 0.40499999523162844 0.5760000014007092
v 0.35100001096725464 0.40499999523162844 0.46799999859929087
v -0.35100001096725464 1.3950000047683715 0.46799999859929087
v -0.35100001096725464 1.3950000047683715 0.5760000014007092
v -0.35100001096725464 0.40499999523162844 0.46799999859929087
v -0.35100001096725464 0.40499999523162844 0.5760000014007092
v -0.35100001096725464 1.3950000047683715 0.46799999859929087
v 0.35100001096725464 1.3950000047683715 0.46799999859929087
v -0.35100001096725464 1.3950000047683715 0.5760000014007092
v 0.35100001096725464 1.3950000047683715 0.5760000014007092
v -0.35100001096725464 0.40499999523162844 0.5760000014007092
v 0.35100001096725464 0.40499999523162844 0.5760000014007092
v -0.35100001096725464 0.40499999523162844 0.46799999859929087
v 0.35100001096725464 0.40499999523162844 0.46799999859929087
v -0.35100001096725464 1.3950000047683715 0.5760000014007092
v 0.35100001096725464 1.3950000047683715 0.5760000014007092
v -0.35100001096725464 0.40499999523162844 0.5760000014007092
v 0.35100001096725464 0.40499999523162844 0.5760000014007092
v 0.35100001096725464 1.3950000047683715 0.46799999859929087
v -0.35100001096725464 1.3950000047683715 0.46799999859929087
v 0.35100001096725464 0.40499999523162844 0.46799999859929087
v -0.35100001096725464 0.40499999523162844 0.46799999859929087
vt 0 1
vt 1 1
vt 0 0
vt 1 0
vt 0 1
vt 1 1
vt 0 0
vt 1 0
vt 0 1
vt 1 1
vt 0 0
vt 1 0
vt 0 1
vt 1 1
vt 0 0
vt 1 0
vt 0 1
vt 1 1
vt 0 0
vt 1 0
vt 0 1
vt 1 1
vt 0 0
vt 1 0
vn 1 0 0
vn 1 0 0
vn 1 0 0
vn 1 0 0
vn -1 0 0
vn -1 0 0
vn -1 0 0
vn -1 0 0
vn 0 1 0
vn 0 1 0
vn 0 1 0
vn 0 1 0
vn 0 -1 0
vn 0 -1 0
vn 0 -1 0
vn 0 -1 0
vn 0 0 1
vn 0 0 1
vn 0 0 1
vn 0 0 1
vn 0 0 -1
vn 0 0 -1
vn 0 0 -1
vn 0 0 -1
f 1/1/1 3/3/3 2/2/2
f 3/3/3 4/4/4 2/2/2
f 5/5/5 7/7/7 6/6/6
f 7/7/7 8/8/8 6/6/6
f 9/9/9 11/11/11 10/10/10
f 11/11/11 12/12/12 10/10/10
f 13/13/13 15/15/15 14/14/14
f 15/15/15 16/16/16 14/14/14
f 17/17/17 19/19/19 18/18/18
f 19/19/19 20/20/20 18/18/18
f 21/21/21 23/23/23 22/22/22
f 23/23/23 24/24/24 22/22/22
o entrance-stone-column
usemtl stone
v -0.25200000309944154 1.395000018119812 0.657000005364418
v -0.25200000309944154 1.395000018119812 0.386999994635582
v -0.25200000309944154 0.332999981880188 0.657000005364418
v -0.25200000309944154 0.332999981880188 0.386999994635582
v -0.3959999969005585 1.395000018119812 0.386999994635582
v -0.3959999969005585 1.395000018119812 0.657000005364418
v -0.3959999969005585 0.332999981880188 0.386999994635582
v -0.3959999969005585 0.332999981880188 0.657000005364418
v -0.3959999969005585 1.395000018119812 0.386999994635582
v -0.25200000309944154 1.395000018119812 0.386999994635582
v -0.3959999969005585 1.395000018119812 0.657000005364418
v -0.25200000309944154 1.395000018119812 0.657000005364418
v -0.3959999969005585 0.332999981880188 0.657000005364418
v -0.25200000309944154 0.332999981880188 0.657000005364418
v -0.3959999969005585 0.332999981880188 0.386999994635582
v -0.25200000309944154 0.332999981880188 0.386999994635582
v -0.3959999969005585 1.395000018119812 0.657000005364418
v -0.25200000309944154 1.395000018119812 0.657000005364418
v -0.3959999969005585 0.332999981880188 0.657000005364418
v -0.25200000309944154 0.332999981880188 0.657000005364418
v -0.25200000309944154 1.395000018119812 0.386999994635582
v -0.3959999969005585 1.395000018119812 0.386999994635582
v -0.25200000309944154 0.332999981880188 0.386999994635582
v -0.3959999969005585 0.332999981880188 0.386999994635582
vt 0 1
vt 1 1
vt 0 0
vt 1 0
vt 0 1
vt 1 1
vt 0 0
vt 1 0
vt 0 1
vt 1 1
vt 0 0
vt 1 0
vt 0 1
vt 1 1
vt 0 0
vt 1 0
vt 0 1
vt 1 1
vt 0 0
vt 1 0
vt 0 1
vt 1 1
vt 0 0
vt 1 0
vn 1 0 0
vn 1 0 0
vn 1 0 0
vn 1 0 0
vn -1 0 0
vn -1 0 0
vn -1 0 0
vn -1 0 0
vn 0 1 0
vn 0 1 0
vn 0 1 0
vn 0 1 0
vn 0 -1 0
vn 0 -1 0
vn 0 -1 0
vn 0 -1 0
vn 0 0 1
vn 0 0 1
vn 0 0 1
vn 0 0 1
vn 0 0 -1
vn 0 0 -1
vn 0 0 -1
vn 0 0 -1
f 25/25/25 27/27/27 26/26/26
f 27/27/27 28/28/28 26/26/26
f 29/29/29 31/31/31 30/30/30
f 31/31/31 32/32/32 30/30/30
f 33/33/33 35/35/35 34/34/34
f 35/35/35 36/36/36 34/34/34
f 37/37/37 39/39/39 38/38/38
f 39/39/39 40/40/40 38/38/38
f 41/41/41 43/43/43 42/42/42
f 43/43/43 44/44/44 42/42/42
f 45/45/45 47/47/47 46/46/46
f 47/47/47 48/48/48 46/46/46
o entrance-stone-foot
usemtl stone-accent
v -0.23399999642372132 0.3690000002384186 0.6749999971389771
v -0.23399999642372132 0.3690000002384186 0.36900000286102297
v -0.23399999642372132 0.20699999976158145 0.6749999971389771
v -0.23399999642372132 0.20699999976158145 0.36900000286102297
v -0.4140000035762787 0.3690000002384186 0.36900000286102297
v -0.4140000035762787 0.3690000002384186 0.6749999971389771
v -0.4140000035762787 0.20699999976158145 0.36900000286102297
v -0.4140000035762787 0.20699999976158145 0.6749999971389771
v -0.4140000035762787 0.3690000002384186 0.36900000286102297
v -0.23399999642372132 0.3690000002384186 0.36900000286102297
v -0.4140000035762787 0.3690000002384186 0.6749999971389771
v -0.23399999642372132 0.3690000002384186 0.6749999971389771
v -0.4140000035762787 0.20699999976158145 0.6749999971389771
v -0.23399999642372132 0.20699999976158145 0.6749999971389771
v -0.4140000035762787 0.20699999976158145 0.36900000286102297
v -0.23399999642372132 0.20699999976158145 0.36900000286102297
v -0.4140000035762787 0.3690000002384186 0.6749999971389771
v -0.23399999642372132 0.3690000002384186 0.6749999971389771
v -0.4140000035762787 0.20699999976158145 0.6749999971389771
v -0.23399999642372132 0.20699999976158145 0.6749999971389771
v -0.23399999642372132 0.3690000002384186 0.36900000286102297
v -0.4140000035762787 0.3690000002384186 0.36900000286102297
v -0.23399999642372132 0.20699999976158145 0.36900000286102297
v -0.4140000035762787 0.20699999976158145 0.36900000286102297
vt 0 1
vt 1 1
vt 0 0
vt 1 0
vt 0 1
vt 1 1
vt 0 0
vt 1 0
vt 0 1
vt 1 1
vt 0 0
vt 1 0
vt 0 1
vt 1 1
vt 0 0
vt 1 0
vt 0 1
vt 1 1
vt 0 0
vt 1 0
vt 0 1
vt 1 1
vt 0 0
vt 1 0
vn 1 0 0
vn 1 0 0
vn 1 0 0
vn 1 0 0
vn -1 0 0
vn -1 0 0
vn -1 0 0
vn -1 0 0
vn 0 1 0
vn 0 1 0
vn 0 1 0
vn 0 1 0
vn 0 -1 0
vn 0 -1 0
vn 0 -1 0
vn 0 -1 0
vn 0 0 1
vn 0 0 1
vn 0 0 1
vn 0 0 1
vn 0 0 -1
vn 0 0 -1
vn 0 0 -1
vn 0 0 -1
f 49/49/49 51/51/51 50/50/50
f 51/51/51 52/52/52 50/50/50
f 53/53/53 55/55/55 54/54/54
f 55/55/55 56/56/56 54/54/54
f 57/57/57 59/59/59 58/58/58
f 59/59/59 60/60/60 58/58/58
f 61/61/61 63/63/63 62/62/62
f 63/63/63 64/64/64 62/62/62
f 65/65/65 67/67/67 66/66/66
f 67/67/67 68/68/68 66/66/66
f 69/69/69 71/71/71 70/70/70
f 71/71/71 72/72/72 70/70/70
o entrance-timber-post
usemtl timber
v -0.2959199985992909 1.4849999952316284 0.4590000002384186
v -0.2959199985992909 1.4849999952316284 0.2969999997615814
v -0.2959199985992909 0.22500000476837156 0.4590000002384186
v -0.2959199985992909 0.22500000476837156 0.2969999997615814
v -0.4039200014007092 1.4849999952316284 0.2969999997615814
v -0.4039200014007092 1.4849999952316284 0.4590000002384186
v -0.4039200014007092 0.22500000476837156 0.2969999997615814
v -0.4039200014007092 0.22500000476837156 0.4590000002384186
v -0.4039200014007092 1.4849999952316284 0.2969999997615814
v -0.2959199985992909 1.4849999952316284 0.2969999997615814
v -0.4039200014007092 1.4849999952316284 0.4590000002384186
v -0.2959199985992909 1.4849999952316284 0.4590000002384186
v -0.4039200014007092 0.22500000476837156 0.4590000002384186
v -0.2959199985992909 0.22500000476837156 0.4590000002384186
v -0.4039200014007092 0.22500000476837156 0.2969999997615814
v -0.2959199985992909 0.22500000476837156 0.2969999997615814
v -0.4039200014007092 1.4849999952316284 0.4590000002384186
v -0.2959199985992909 1.4849999952316284 0.4590000002384186
v -0.4039200014007092 0.22500000476837156 0.4590000002384186
v -0.2959199985992909 0.22500000476837156 0.4590000002384186
v -0.2959199985992909 1.4849999952316284 0.2969999997615814
v -0.4039200014007092 1.4849999952316284 0.2969999997615814
v -0.2959199985992909 0.22500000476837156 0.2969999997615814
v -0.4039200014007092 0.22500000476837156 0.2969999997615814
vt 0 1
vt 1 1
vt 0 0
vt 1 0
vt 0 1
vt 1 1
vt 0 0
vt 1 0
vt 0 1
vt 1 1
vt 0 0
vt 1 0
vt 0 1
vt 1 1
vt 0 0
vt 1 0
vt 0 1
vt 1 1
vt 0 0
vt 1 0
vt 0 1
vt 1 1
vt 0 0
vt 1 0
vn 1 0 0
vn 1 0 0
vn 1 0 0
vn 1 0 0
vn -1 0 0
vn -1 0 0
vn -1 0 0
vn -1 0 0
vn 0 1 0
vn 0 1 0
vn 0 1 0
vn 0 1 0
vn 0 -1 0
vn 0 -1 0
vn 0 -1 0
vn 0 -1 0
vn 0 0 1
vn 0 0 1
vn 0 0 1
vn 0 0 1
vn 0 0 -1
vn 0 0 -1
vn 0 0 -1
vn 0 0 -1
f 73/73/73 75/75/75 74/74/74
f 75/75/75 76/76/76 74/74/74
f 77/77/77 79/79/79 78/78/78
f 79/79/79 80/80/80 78/78/78
f 81/81/81 83/83/83 82/82/82
f 83/83/83 84/84/84 82/82/82
f 85/85/85 87/87/87 86/86/86
f 87/87/87 88/88/88 86/86/86
f 89/89/89 91/91/91 90/90/90
f 91/91/91 92/92/92 90/90/90
f 93/93/93 95/95/95 94/94/94
f 95/95/95 96/96/96 94/94/94
o entrance-stone-column
usemtl stone
v 0.3959999969005585 1.395000018119812 0.657000005364418
v 0.3959999969005585 1.395000018119812 0.386999994635582
v 0.3959999969005585 0.332999981880188 0.657000005364418
v 0.3959999969005585 0.332999981880188 0.386999994635582
v 0.25200000309944154 1.395000018119812 0.386999994635582
v 0.25200000309944154 1.395000018119812 0.657000005364418
v 0.25200000309944154 0.332999981880188 0.386999994635582
v 0.25200000309944154 0.332999981880188 0.657000005364418
v 0.25200000309944154 1.395000018119812 0.386999994635582
v 0.3959999969005585 1.395000018119812 0.386999994635582
v 0.25200000309944154 1.395000018119812 0.657000005364418
v 0.3959999969005585 1.395000018119812 0.657000005364418
v 0.25200000309944154 0.332999981880188 0.657000005364418
v 0.3959999969005585 0.332999981880188 0.657000005364418
v 0.25200000309944154 0.332999981880188 0.386999994635582
v 0.3959999969005585 0.332999981880188 0.386999994635582
v 0.25200000309944154 1.395000018119812 0.657000005364418
v 0.3959999969005585 1.395000018119812 0.657000005364418
v 0.25200000309944154 0.332999981880188 0.657000005364418
v 0.3959999969005585 0.332999981880188 0.657000005364418
v 0.3959999969005585 1.395000018119812 0.386999994635582
v 0.25200000309944154 1.395000018119812 0.386999994635582
v 0.3959999969005585 0.332999981880188 0.386999994635582
v 0.25200000309944154 0.332999981880188 0.386999994635582
vt 0 1
vt 1 1
vt 0 0
vt 1 0
vt 0 1
vt 1 1
vt 0 0
vt 1 0
vt 0 1
vt 1 1
vt 0 0
vt 1 0
vt 0 1
vt 1 1
vt 0 0
vt 1 0
vt 0 1
vt 1 1
vt 0 0
vt 1 0
vt 0 1
vt 1 1
vt 0 0
vt 1 0
vn 1 0 0
vn 1 0 0
vn 1 0 0
vn 1 0 0
vn -1 0 0
vn -1 0 0
vn -1 0 0
vn -1 0 0
vn 0 1 0
vn 0 1 0
vn 0 1 0
vn 0 1 0
vn 0 -1 0
vn 0 -1 0
vn 0 -1 0
vn 0 -1 0
vn 0 0 1
vn 0 0 1
vn 0 0 1
vn 0 0 1
vn 0 0 -1
vn 0 0 -1
vn 0 0 -1
vn 0 0 -1
f 97/97/97 99/99/99 98/98/98
f 99/99/99 100/100/100 98/98/98
f 101/101/101 103/103/103 102/102/102
f 103/103/103 104/104/104 102/102/102
f 105/105/105 107/107/107 106/106/106
f 107/107/107 108/108/108 106/106/106
f 109/109/109 111/111/111 110/110/110
f 111/111/111 112/112/112 110/110/110
f 113/113/113 115/115/115 114/114/114
f 115/115/115 116/116/116 114/114/114
f 117/117/117 119/119/119 118/118/118
f 119/119/119 120/120/120 118/118/118
o entrance-stone-foot
usemtl stone-accent
v 0.4140000035762787 0.3690000002384186 0.6749999971389771
v 0.4140000035762787 0.3690000002384186 0.36900000286102297
v 0.4140000035762787 0.20699999976158145 0.6749999971389771
v 0.4140000035762787 0.20699999976158145 0.36900000286102297
v 0.23399999642372132 0.3690000002384186 0.36900000286102297
v 0.23399999642372132 0.3690000002384186 0.6749999971389771
v 0.23399999642372132 0.20699999976158145 0.36900000286102297
v 0.23399999642372132 0.20699999976158145 0.6749999971389771
v 0.23399999642372132 0.3690000002384186 0.36900000286102297
v 0.4140000035762787 0.3690000002384186 0.36900000286102297
v 0.23399999642372132 0.3690000002384186 0.6749999971389771
v 0.4140000035762787 0.3690000002384186 0.6749999971389771
v 0.23399999642372132 0.20699999976158145 0.6749999971389771
v 0.4140000035762787 0.20699999976158145 0.6749999971389771
v 0.23399999642372132 0.20699999976158145 0.36900000286102297
v 0.4140000035762787 0.20699999976158145 0.36900000286102297
v 0.23399999642372132 0.3690000002384186 0.6749999971389771
v 0.4140000035762787 0.3690000002384186 0.6749999971389771
v 0.23399999642372132 0.20699999976158145 0.6749999971389771
v 0.4140000035762787 0.20699999976158145 0.6749999971389771
v 0.4140000035762787 0.3690000002384186 0.36900000286102297
v 0.23399999642372132 0.3690000002384186 0.36900000286102297
v 0.4140000035762787 0.20699999976158145 0.36900000286102297
v 0.23399999642372132 0.20699999976158145 0.36900000286102297
vt 0 1
vt 1 1
vt 0 0
vt 1 0
vt 0 1
vt 1 1
vt 0 0
vt 1 0
vt 0 1
vt 1 1
vt 0 0
vt 1 0
vt 0 1
vt 1 1
vt 0 0
vt 1 0
vt 0 1
vt 1 1
vt 0 0
vt 1 0
vt 0 1
vt 1 1
vt 0 0
vt 1 0
vn 1 0 0
vn 1 0 0
vn 1 0 0
vn 1 0 0
vn -1 0 0
vn -1 0 0
vn -1 0 0
vn -1 0 0
vn 0 1 0
vn 0 1 0
vn 0 1 0
vn 0 1 0
vn 0 -1 0
vn 0 -1 0
vn 0 -1 0
vn 0 -1 0
vn 0 0 1
vn 0 0 1
vn 0 0 1
vn 0 0 1
vn 0 0 -1
vn 0 0 -1
vn 0 0 -1
vn 0 0 -1
f 121/121/121 123/123/123 122/122/122
f 123/123/123 124/124/124 122/122/122
f 125/125/125 127/127/127 126/126/126
f 127/127/127 128/128/128 126/126/126
f 129/129/129 131/131/131 130/130/130
f 131/131/131 132/132/132 130/130/130
f 133/133/133 135/135/135 134/134/134
f 135/135/135 136/136/136 134/134/134
f 137/137/137 139/139/139 138/138/138
f 139/139/139 140/140/140 138/138/138
f 141/141/141 143/143/143 142/142/142
f 143/143/143 144/144/144 142/142/142
o entrance-timber-post
usemtl timber
v 0.4039200014007092 1.4849999952316284 0.4590000002384186
v 0.4039200014007092 1.4849999952316284 0.2969999997615814
v 0.4039200014007092 0.22500000476837156 0.4590000002384186
v 0.4039200014007092 0.22500000476837156 0.2969999997615814
v 0.2959199985992909 1.4849999952316284 0.2969999997615814
v 0.2959199985992909 1.4849999952316284 0.4590000002384186
v 0.2959199985992909 0.22500000476837156 0.2969999997615814
v 0.2959199985992909 0.22500000476837156 0.4590000002384186
v 0.2959199985992909 1.4849999952316284 0.2969999997615814
v 0.4039200014007092 1.4849999952316284 0.2969999997615814
v 0.2959199985992909 1.4849999952316284 0.4590000002384186
v 0.4039200014007092 1.4849999952316284 0.4590000002384186
v 0.2959199985992909 0.22500000476837156 0.4590000002384186
v 0.4039200014007092 0.22500000476837156 0.4590000002384186
v 0.2959199985992909 0.22500000476837156 0.2969999997615814
v 0.4039200014007092 0.22500000476837156 0.2969999997615814
v 0.2959199985992909 1.4849999952316284 0.4590000002384186
v 0.4039200014007092 1.4849999952316284 0.4590000002384186
v 0.2959199985992909 0.22500000476837156 0.4590000002384186
v 0.4039200014007092 0.22500000476837156 0.4590000002384186
v 0.4039200014007092 1.4849999952316284 0.2969999997615814
v 0.2959199985992909 1.4849999952316284 0.2969999997615814
v 0.4039200014007092 0.22500000476837156 0.2969999997615814
v 0.2959199985992909 0.22500000476837156 0.2969999997615814
vt 0 1
vt 1 1
vt 0 0
vt 1 0
vt 0 1
vt 1 1
vt 0 0
vt 1 0
vt 0 1
vt 1 1
vt 0 0
vt 1 0
vt 0 1
vt 1 1
vt 0 0
vt 1 0
vt 0 1
vt 1 1
vt 0 0
vt 1 0
vt 0 1
vt 1 1
vt 0 0
vt 1 0
vn 1 0 0
vn 1 0 0
vn 1 0 0
vn 1 0 0
vn -1 0 0
vn -1 0 0
vn -1 0 0
vn -1 0 0
vn 0 1 0
vn 0 1 0
vn 0 1 0
vn 0 1 0
vn 0 -1 0
vn 0 -1 0
vn 0 -1 0
vn 0 -1 0
vn 0 0 1
vn 0 0 1
vn 0 0 1
vn 0 0 1
vn 0 0 -1
vn 0 0 -1
vn 0 0 -1
vn 0 0 -1
f 145/145/145 147/147/147 146/146/146
f 147/147/147 148/148/148 146/146/146
f 149/149/149 151/151/151 150/150/150
f 151/151/151 152/152/152 150/150/150
f 153/153/153 155/155/155 154/154/154
f 155/155/155 156/156/156 154/154/154
f 157/157/157 159/159/159 158/158/158
f 159/159/159 160/160/160 158/158/158
f 161/161/161 163/163/163 162/162/162
f 163/163/163 164/164/164 162/162/162
f 165/165/165 167/167/167 166/166/166
f 167/167/167 168/168/168 166/166/166
o entrance-stone-header
usemtl stone
v 0.3779999911785126 1.4940000035762788 0.657000005364418
v 0.3779999911785126 1.4940000035762788 0.386999994635582
v 0.3779999911785126 1.3139999964237215 0.657000005364418
v 0.3779999911785126 1.3139999964237215 0.386999994635582
v -0.3779999911785126 1.4940000035762788 0.386999994635582
v -0.3779999911785126 1.4940000035762788 0.657000005364418
v -0.3779999911785126 1.3139999964237215 0.386999994635582
v -0.3779999911785126 1.3139999964237215 0.657000005364418
v -0.3779999911785126 1.4940000035762788 0.386999994635582
v 0.3779999911785126 1.4940000035762788 0.386999994635582
v -0.3779999911785126 1.4940000035762788 0.657000005364418
v 0.3779999911785126 1.4940000035762788 0.657000005364418
v -0.3779999911785126 1.3139999964237215 0.657000005364418
v 0.3779999911785126 1.3139999964237215 0.657000005364418
v -0.3779999911785126 1.3139999964237215 0.386999994635582
v 0.3779999911785126 1.3139999964237215 0.386999994635582
v -0.3779999911785126 1.4940000035762788 0.657000005364418
v 0.3779999911785126 1.4940000035762788 0.657000005364418
v -0.3779999911785126 1.3139999964237215 0.657000005364418
v 0.3779999911785126 1.3139999964237215 0.657000005364418
v 0.3779999911785126 1.4940000035762788 0.386999994635582
v -0.3779999911785126 1.4940000035762788 0.386999994635582
v 0.3779999911785126 1.3139999964237215 0.386999994635582
v -0.3779999911785126 1.3139999964237215 0.386999994635582
vt 0 1
vt 1 1
vt 0 0
vt 1 0
vt 0 1
vt 1 1
vt 0 0
vt 1 0
vt 0 1
vt 1 1
vt 0 0
vt 1 0
vt 0 1
vt 1 1
vt 0 0
vt 1 0
vt 0 1
vt 1 1
vt 0 0
vt 1 0
vt 0 1
vt 1 1
vt 0 0
vt 1 0
vn 1 0 0
vn 1 0 0
vn 1 0 0
vn 1 0 0
vn -1 0 0
vn -1 0 0
vn -1 0 0
vn -1 0 0
vn 0 1 0
vn 0 1 0
vn 0 1 0
vn 0 1 0
vn 0 -1 0
vn 0 -1 0
vn 0 -1 0
vn 0 -1 0
vn 0 0 1
vn 0 0 1
vn 0 0 1
vn 0 0 1
vn 0 0 -1
vn 0 0 -1
vn 0 0 -1
vn 0 0 -1
f 169/169/169 171/171/171 170/170/170
f 171/171/171 172/172/172 170/170/170
f 173/173/173 175/175/175 174/174/174
f 175/175/175 176/176/176 174/174/174
f 177/177/177 179/179/179 178/178/178
f 179/179/179 180/180/180 178/178/178
f 181/181/181 183/183/183 182/182/182
f 183/183/183 184/184/184 182/182/182
f 185/185/185 187/187/187 186/186/186
f 187/187/187 188/188/188 186/186/186
f 189/189/189 191/191/191 190/190/190
f 191/191/191 192/192/192 190/190/190
o entrance-timber-header
usemtl dark-beam
v 0.414000004529953 1.5930000002384186 0.4769999994635582
v 0.414000004529953 1.5930000002384186 0.2790000005364418
v 0.414000004529953 1.4309999997615814 0.4769999994635582
v 0.414000004529953 1.4309999997615814 0.2790000005364418
v -0.414000004529953 1.5930000002384186 0.2790000005364418
v -0.414000004529953 1.5930000002384186 0.4769999994635582
v -0.414000004529953 1.4309999997615814 0.2790000005364418
v -0.414000004529953 1.4309999997615814 0.4769999994635582
v -0.414000004529953 1.5930000002384186 0.2790000005364418
v 0.414000004529953 1.5930000002384186 0.2790000005364418
v -0.414000004529953 1.5930000002384186 0.4769999994635582
v 0.414000004529953 1.5930000002384186 0.4769999994635582
v -0.414000004529953 1.4309999997615814 0.4769999994635582
v 0.414000004529953 1.4309999997615814 0.4769999994635582
v -0.414000004529953 1.4309999997615814 0.2790000005364418
v 0.414000004529953 1.4309999997615814 0.2790000005364418
v -0.414000004529953 1.5930000002384186 0.4769999994635582
v 0.414000004529953 1.5930000002384186 0.4769999994635582
v -0.414000004529953 1.4309999997615814 0.4769999994635582
v 0.414000004529953 1.4309999997615814 0.4769999994635582
v 0.414000004529953 1.5930000002384186 0.2790000005364418
v -0.414000004529953 1.5930000002384186 0.2790000005364418
v 0.414000004529953 1.4309999997615814 0.2790000005364418
v -0.414000004529953 1.4309999997615814 0.2790000005364418
vt 0 1
vt 1 1
vt 0 0
vt 1 0
vt 0 1
vt 1 1
vt 0 0
vt 1 0
vt 0 1
vt 1 1
vt 0 0
vt 1 0
vt 0 1
vt 1 1
vt 0 0
vt 1 0
vt 0 1
vt 1 1
vt 0 0
vt 1 0
vt 0 1
vt 1 1
vt 0 0
vt 1 0
vn 1 0 0
vn 1 0 0
vn 1 0 0
vn 1 0 0
vn -1 0 0
vn -1 0 0
vn -1 0 0
vn -1 0 0
vn 0 1 0
vn 0 1 0
vn 0 1 0
vn 0 1 0
vn 0 -1 0
vn 0 -1 0
vn 0 -1 0
vn 0 -1 0
vn 0 0 1
vn 0 0 1
vn 0 0 1
vn 0 0 1
vn 0 0 -1
vn 0 0 -1
vn 0 0 -1
vn 0 0 -1
f 193/193/193 195/195/195 194/194/194
f 195/195/195 196/196/196 194/194/194
f 197/197/197 199/199/199 198/198/198
f 199/199/199 200/200/200 198/198/198
f 201/201/201 203/203/203 202/202/202
f 203/203/203 204/204/204 202/202/202
f 205/205/205 207/207/207 206/206/206
f 207/207/207 208/208/208 206/206/206
f 209/209/209 211/211/211 210/210/210
f 211/211/211 212/212/212 210/210/210
f 213/213/213 215/215/215 214/214/214
f 215/215/215 216/216/216 214/214/214
o left-timber-foot
usemtl timber
v -0.2879999989867211 0.3510000002384186 0.513000005364418
v -0.2879999989867211 0.3510000002384186 0.24299999463558197
v -0.2879999989867211 0.18899999976158144 0.513000005364418
v -0.2879999989867211 0.18899999976158144 0.24299999463558197
v -0.414000001013279 0.3510000002384186 0.24299999463558197
v -0.414000001013279 0.3510000002384186 0.513000005364418
v -0.414000001013279 0.18899999976158144 0.24299999463558197
v -0.414000001013279 0.18899999976158144 0.513000005364418
v -0.414000001013279 0.3510000002384186 0.24299999463558197
v -0.2879999989867211 0.3510000002384186 0.24299999463558197
v -0.414000001013279 0.3510000002384186 0.513000005364418
v -0.2879999989867211 0.3510000002384186 0.513000005364418
v -0.414000001013279 0.18899999976158144 0.513000005364418
v -0.2879999989867211 0.18899999976158144 0.513000005364418
v -0.414000001013279 0.18899999976158144 0.24299999463558197
v -0.2879999989867211 0.18899999976158144 0.24299999463558197
v -0.414000001013279 0.3510000002384186 0.513000005364418
v -0.2879999989867211 0.3510000002384186 0.513000005364418
v -0.414000001013279 0.18899999976158144 0.513000005364418
v -0.2879999989867211 0.18899999976158144 0.513000005364418
v -0.2879999989867211 0.3510000002384186 0.24299999463558197
v -0.414000001013279 0.3510000002384186 0.24299999463558197
v -0.2879999989867211 0.18899999976158144 0.24299999463558197
v -0.414000001013279 0.18899999976158144 0.24299999463558197
vt 0 1
vt 1 1
vt 0 0
vt 1 0
vt 0 1
vt 1 1
vt 0 0
vt 1 0
vt 0 1
vt 1 1
vt 0 0
vt 1 0
vt 0 1
vt 1 1
vt 0 0
vt 1 0
vt 0 1
vt 1 1
vt 0 0
vt 1 0
vt 0 1
vt 1 1
vt 0 0
vt 1 0
vn 1 0 0
vn 1 0 0
vn 1 0 0
vn 1 0 0
vn -1 0 0
vn -1 0 0
vn -1 0 0
vn -1 0 0
vn 0 1 0
vn 0 1 0
vn 0 1 0
vn 0 1 0
vn 0 -1 0
vn 0 -1 0
vn 0 -1 0
vn 0 -1 0
vn 0 0 1
vn 0 0 1
vn 0 0 1
vn 0 0 1
vn 0 0 -1
vn 0 0 -1
vn 0 0 -1
vn 0 0 -1
f 217/217/217 219/219/219 218/218/218
f 219/219/219 220/220/220 218/218/218
f 221/221/221 223/223/223 222/222/222
f 223/223/223 224/224/224 222/222/222
f 225/225/225 227/227/227 226/226/226
f 227/227/227 228/228/228 226/226/226
f 229/229/229 231/231/231 230/230/230
f 231/231/231 232/232/232 230/230/230
f 233/233/233 235/235/235 234/234/234
f 235/235/235 236/236/236 234/234/234
f 237/237/237 239/239/239 238/238/238
f 239/239/239 240/240/240 238/238/238
o right-timber-foot
usemtl timber
v 0.414000001013279 0.3510000002384186 0.513000005364418
v 0.414000001013279 0.3510000002384186 0.24299999463558197
v 0.414000001013279 0.18899999976158144 0.513000005364418
v 0.414000001013279 0.18899999976158144 0.24299999463558197
v 0.2879999989867211 0.3510000002384186 0.24299999463558197
v 0.2879999989867211 0.3510000002384186 0.513000005364418
v 0.2879999989867211 0.18899999976158144 0.24299999463558197
v 0.2879999989867211 0.18899999976158144 0.513000005364418
v 0.2879999989867211 0.3510000002384186 0.24299999463558197
v 0.414000001013279 0.3510000002384186 0.24299999463558197
v 0.2879999989867211 0.3510000002384186 0.513000005364418
v 0.414000001013279 0.3510000002384186 0.513000005364418
v 0.2879999989867211 0.18899999976158144 0.513000005364418
v 0.414000001013279 0.18899999976158144 0.513000005364418
v 0.2879999989867211 0.18899999976158144 0.24299999463558197
v 0.414000001013279 0.18899999976158144 0.24299999463558197
v 0.2879999989867211 0.3510000002384186 0.513000005364418
v 0.414000001013279 0.3510000002384186 0.513000005364418
v 0.2879999989867211 0.18899999976158144 0.513000005364418
v 0.414000001013279 0.18899999976158144 0.513000005364418
v 0.414000001013279 0.3510000002384186 0.24299999463558197
v 0.2879999989867211 0.3510000002384186 0.24299999463558197
v 0.414000001013279 0.18899999976158144 0.24299999463558197
v 0.2879999989867211 0.18899999976158144 0.24299999463558197
vt 0 1
vt 1 1
vt 0 0
vt 1 0
vt 0 1
vt 1 1
vt 0 0
vt 1 0
vt 0 1
vt 1 1
vt 0 0
vt 1 0
vt 0 1
vt 1 1
vt 0 0
vt 1 0
vt 0 1
vt 1 1
vt 0 0
vt 1 0
vt 0 1
vt 1 1
vt 0 0
vt 1 0
vn 1 0 0
vn 1 0 0
vn 1 0 0
vn 1 0 0
vn -1 0 0
vn -1 0 0
vn -1 0 0
vn -1 0 0
vn 0 1 0
vn 0 1 0
vn 0 1 0
vn 0 1 0
vn 0 -1 0
vn 0 -1 0
vn 0 -1 0
vn 0 -1 0
vn 0 0 1
vn 0 0 1
vn 0 0 1
vn 0 0 1
vn 0 0 -1
vn 0 0 -1
vn 0 0 -1
vn 0 0 -1
f 241/241/241 243/243/243 242/242/242
f 243/243/243 244/244/244 242/242/242
f 245/245/245 247/247/247 246/246/246
f 247/247/247 248/248/248 246/246/246
f 249/249/249 251/251/251 250/250/250
f 251/251/251 252/252/252 250/250/250
f 253/253/253 255/255/255 254/254/254
f 255/255/255 256/256/256 254/254/254
f 257/257/257 259/259/259 258/258/258
f 259/259/259 260/260/260 258/258/258
f 261/261/261 263/263/263 262/262/262
f 263/263/263 264/264/264 262/262/262
o rear-sloped-stone-shell
usemtl stone
v 0.35100001096725464 1.4328980835556466 0.2714538380491234
v 0.35100001096725464 0.6462242203059108 -0.35879076967399115
v 0.35100001096725464 1.1177757796940893 0.6647907696739912
v 0.35100001096725464 0.3311019164443535 0.0345461619508767
v -0.35100001096725464 0.6462242203059108 -0.35879076967399115
v -0.35100001096725464 1.4328980835556466 0.2714538380491234
v -0.35100001096725464 0.3311019164443535 0.0345461619508767
v -0.35100001096725464 1.1177757796940893 0.6647907696739912
v -0.35100001096725464 0.6462242203059108 -0.35879076967399115
v 0.35100001096725464 0.6462242203059108 -0.35879076967399115
v -0.35100001096725464 1.4328980835556466 0.2714538380491234
v 0.35100001096725464 1.4328980835556466 0.2714538380491234
v -0.35100001096725464 1.1177757796940893 0.6647907696739912
v 0.35100001096725464 1.1177757796940893 0.6647907696739912
v -0.35100001096725464 0.3311019164443535 0.0345461619508767
v 0.35100001096725464 0.3311019164443535 0.0345461619508767
v -0.35100001096725464 1.4328980835556466 0.2714538380491234
v 0.35100001096725464 1.4328980835556466 0.2714538380491234
v -0.35100001096725464 1.1177757796940893 0.6647907696739912
v 0.35100001096725464 1.1177757796940893 0.6647907696739912
v 0.35100001096725464 0.6462242203059108 -0.35879076967399115
v -0.35100001096725464 0.6462242203059108 -0.35879076967399115
v 0.35100001096725464 0.3311019164443535 0.0345461619508767
v -0.35100001096725464 0.3311019164443535 0.0345461619508767
vt 0 1
vt 1 1
vt 0 0
vt 1 0
vt 0 1
vt 1 1
vt 0 0
vt 1 0
vt 0 1
vt 1 1
vt 0 0
vt 1 0
vt 0 1
vt 1 1
vt 0 0
vt 1 0
vt 0 1
vt 1 1
vt 0 0
vt 1 0
vt 0 1
vt 1 1
vt 0 0
vt 1 0
vn 1 0 0
vn 1 0 0
vn 1 0 0
vn 1 0 0
vn -1 0 0
vn -1 0 0
vn -1 0 0
vn -1 0 0
vn 0 0.6252426563357052 -0.7804304073383297
vn 0 0.6252426563357052 -0.7804304073383297
vn 0 0.6252426563357052 -0.7804304073383297
vn 0 0.6252426563357052 -0.7804304073383297
vn 0 -0.6252426563357052 0.7804304073383297
vn 0 -0.6252426563357052 0.7804304073383297
vn 0 -0.6252426563357052 0.7804304073383297
vn 0 -0.6252426563357052 0.7804304073383297
vn 0 0.7804304073383297 0.6252426563357052
vn 0 0.7804304073383297 0.6252426563357052
vn 0 0.7804304073383297 0.6252426563357052
vn 0 0.7804304073383297 0.6252426563357052
vn 0 -0.7804304073383297 -0.6252426563357052
vn 0 -0.7804304073383297 -0.6252426563357052
vn 0 -0.7804304073383297 -0.6252426563357052
vn 0 -0.7804304073383297 -0.6252426563357052
f 265/265/265 267/267/267 266/266/266
f 267/267/267 268/268/268 266/266/266
f 269/269/269 271/271/271 270/270/270
f 271/271/271 272/272/272 270/270/270
f 273/273/273 275/275/275 274/274/274
f 275/275/275 276/276/276 274/274/274
f 277/277/277 279/279/279 278/278/278
f 279/279/279 280/280/280 278/278/278
f 281/281/281 283/283/283 282/282/282
f 283/283/283 284/284/284 282/282/282
f 285/285/285 287/287/287 286/286/286
f 287/287/287 288/288/288 286/286/286
o rear-ground-seal
usemtl stone
v -0.35100001096725464 0.3059999942779541 -0.3779999911785126
v 0.35100001096725464 0.3059999942779541 -0.3779999911785126
v -0.35100001096725464 0.3059999942779541 0.4950000047683716
v 0.35100001096725464 0.3059999942779541 0.4950000047683716
v -0.35100001096725464 1.4220000505447388 0.4950000047683716
v 0.35100001096725464 1.4220000505447388 0.4950000047683716
vt 0 0
vt 1 0
vt 0 1
vt 1 1
vt 0 1
vt 1 1
vn -0.31754249534287216 0.7989778568987231 -0.5106869372100146
vn 0.5564716240937964 0.7000772083505594 -0.4474720482069241
vn -0.5011199053645992 0.3152205904393966 0.8059248226791461
vn 0.5564716240937964 0.7000772083505594 0.4474720482069241
vn -0.8464607663028986 0.5324510973882104 2.1393631479334742e-9
vn 0.6222441171461854 0.7828232614562269 1.5726730965430229e-9
f 289/289/289 291/291/291 292/292/292
f 289/289/289 292/292/292 290/290/290
f 291/291/291 292/292/292 294/294/294
f 291/291/291 294/294/294 293/293/293
f 289/289/289 293/293/293 294/294/294
f 289/289/289 294/294/294 290/290/290
f 289/289/289 291/291/291 293/293/293
f 290/290/290 294/294/294 292/292/292
o rear-sloped-timber-rib
usemtl dark-beam
v -0.18450000065565111 1.5703782772141481 0.17455850294608977
v -0.18450000065565111 0.7696566614223874 -0.4669404767650125
v -0.18450000065565111 1.4803433385776126 0.28694047676501244
v -0.18450000065565111 0.6796217227858519 -0.3545585029460898
v -0.3014999993443489 0.7696566614223874 -0.4669404767650125
v -0.3014999993443489 1.5703782772141481 0.17455850294608977
v -0.3014999993443489 0.6796217227858519 -0.3545585029460898
v -0.3014999993443489 1.4803433385776126 0.28694047676501244
v -0.3014999993443489 0.7696566614223874 -0.4669404767650125
v -0.18450000065565111 0.7696566614223874 -0.4669404767650125
v -0.3014999993443489 1.5703782772141481 0.17455850294608977
v -0.18450000065565111 1.5703782772141481 0.17455850294608977
v -0.3014999993443489 1.4803433385776126 0.28694047676501244
v -0.18450000065565111 1.4803433385776126 0.28694047676501244
v -0.3014999993443489 0.6796217227858519 -0.3545585029460898
v -0.18450000065565111 0.6796217227858519 -0.3545585029460898
v -0.3014999993443489 1.5703782772141481 0.17455850294608977
v -0.18450000065565111 1.5703782772141481 0.17455850294608977
v -0.3014999993443489 1.4803433385776126 0.28694047676501244
v -0.18450000065565111 1.4803433385776126 0.28694047676501244
v -0.18450000065565111 0.7696566614223874 -0.4669404767650125
v -0.3014999993443489 0.7696566614223874 -0.4669404767650125
v -0.18450000065565111 0.6796217227858519 -0.3545585029460898
v -0.3014999993443489 0.6796217227858519 -0.3545585029460898
vt 0 1
vt 1 1
vt 0 0
vt 1 0
vt 0 1
vt 1 1
vt 0 0
vt 1 0
vt 0 1
vt 1 1
vt 0 0
vt 1 0
vt 0 1
vt 1 1
vt 0 0
vt 1 0
vt 0 1
vt 1 1
vt 0 0
vt 1 0
vt 0 1
vt 1 1
vt 0 0
vt 1 0
vn 1 0 0
vn 1 0 0
vn 1 0 0
vn 1 0 0
vn -1 0 0
vn -1 0 0
vn -1 0 0
vn -1 0 0
vn 0 0.6252426563357052 -0.7804304073383297
vn 0 0.6252426563357052 -0.7804304073383297
vn 0 0.6252426563357052 -0.7804304073383297
vn 0 0.6252426563357052 -0.7804304073383297
vn 0 -0.6252426563357052 0.7804304073383297
vn 0 -0.6252426563357052 0.7804304073383297
vn 0 -0.6252426563357052 0.7804304073383297
vn 0 -0.6252426563357052 0.7804304073383297
vn 0 0.7804304073383297 0.6252426563357052
vn 0 0.7804304073383297 0.6252426563357052
vn 0 0.7804304073383297 0.6252426563357052
vn 0 0.7804304073383297 0.6252426563357052
vn 0 -0.7804304073383297 -0.6252426563357052
vn 0 -0.7804304073383297 -0.6252426563357052
vn 0 -0.7804304073383297 -0.6252426563357052
vn 0 -0.7804304073383297 -0.6252426563357052
f 295/295/295 297/297/297 296/296/296
f 297/297/297 298/298/298 296/296/296
f 299/299/299 301/301/301 300/300/300
f 301/301/301 302/302/302 300/300/300
f 303/303/303 305/305/305 304/304/304
f 305/305/305 306/306/306 304/304/304
f 307/307/307 309/309/309 308/308/308
f 309/309/309 310/310/310 308/308/308
f 311/311/311 313/313/313 312/312/312
f 313/313/313 314/314/314 312/312/312
f 315/315/315 317/317/317 316/316/316
f 317/317/317 318/318/318 316/316/316
o rear-sloped-timber-rib
usemtl dark-beam
v 0.05849999934434891 1.5703782772141481 0.17455850294608977
v 0.05849999934434891 0.7696566614223874 -0.4669404767650125
v 0.05849999934434891 1.4803433385776126 0.28694047676501244
v 0.05849999934434891 0.6796217227858519 -0.3545585029460898
v -0.05849999934434891 0.7696566614223874 -0.4669404767650125
v -0.05849999934434891 1.5703782772141481 0.17455850294608977
v -0.05849999934434891 0.6796217227858519 -0.3545585029460898
v -0.05849999934434891 1.4803433385776126 0.28694047676501244
v -0.05849999934434891 0.7696566614223874 -0.4669404767650125
v 0.05849999934434891 0.7696566614223874 -0.4669404767650125
v -0.05849999934434891 1.5703782772141481 0.17455850294608977
v 0.05849999934434891 1.5703782772141481 0.17455850294608977
v -0.05849999934434891 1.4803433385776126 0.28694047676501244
v 0.05849999934434891 1.4803433385776126 0.28694047676501244
v -0.05849999934434891 0.6796217227858519 -0.3545585029460898
v 0.05849999934434891 0.6796217227858519 -0.3545585029460898
v -0.05849999934434891 1.5703782772141481 0.17455850294608977
v 0.05849999934434891 1.5703782772141481 0.17455850294608977
v -0.05849999934434891 1.4803433385776126 0.28694047676501244
v 0.05849999934434891 1.4803433385776126 0.28694047676501244
v 0.05849999934434891 0.7696566614223874 -0.4669404767650125
v -0.05849999934434891 0.7696566614223874 -0.4669404767650125
v 0.05849999934434891 0.6796217227858519 -0.3545585029460898
v -0.05849999934434891 0.6796217227858519 -0.3545585029460898
vt 0 1
vt 1 1
vt 0 0
vt 1 0
vt 0 1
vt 1 1
vt 0 0
vt 1 0
vt 0 1
vt 1 1
vt 0 0
vt 1 0
vt 0 1
vt 1 1
vt 0 0
vt 1 0
vt 0 1
vt 1 1
vt 0 0
vt 1 0
vt 0 1
vt 1 1
vt 0 0
vt 1 0
vn 1 0 0
vn 1 0 0
vn 1 0 0
vn 1 0 0
vn -1 0 0
vn -1 0 0
vn -1 0 0
vn -1 0 0
vn 0 0.6252426563357052 -0.7804304073383297
vn 0 0.6252426563357052 -0.7804304073383297
vn 0 0.6252426563357052 -0.7804304073383297
vn 0 0.6252426563357052 -0.7804304073383297
vn 0 -0.6252426563357052 0.7804304073383297
vn 0 -0.6252426563357052 0.7804304073383297
vn 0 -0.6252426563357052 0.7804304073383297
vn 0 -0.6252426563357052 0.7804304073383297
vn 0 0.7804304073383297 0.6252426563357052
vn 0 0.7804304073383297 0.6252426563357052
vn 0 0.7804304073383297 0.6252426563357052
vn 0 0.7804304073383297 0.6252426563357052
vn 0 -0.7804304073383297 -0.6252426563357052
vn 0 -0.7804304073383297 -0.6252426563357052
vn 0 -0.7804304073383297 -0.6252426563357052
vn 0 -0.7804304073383297 -0.6252426563357052
f 319/319/319 321/321/321 320/320/320
f 321/321/321 322/322/322 320/320/320
f 323/323/323 325/325/325 324/324/324
f 325/325/325 326/326/326 324/324/324
f 327/327/327 329/329/329 328/328/328
f 329/329/329 330/330/330 328/328/328
f 331/331/331 333/333/333 332/332/332
f 333/333/333 334/334/334 332/332/332
f 335/335/335 337/337/337 336/336/336
f 337/337/337 338/338/338 336/336/336
f 339/339/339 341/341/341 340/340/340
f 341/341/341 342/342/342 340/340/340
o rear-sloped-timber-rib
usemtl dark-beam
v 0.3014999993443489 1.5703782772141481 0.17455850294608977
v 0.3014999993443489 0.7696566614223874 -0.4669404767650125
v 0.3014999993443489 1.4803433385776126 0.28694047676501244
v 0.3014999993443489 0.6796217227858519 -0.3545585029460898
v 0.18450000065565111 0.7696566614223874 -0.4669404767650125
v 0.18450000065565111 1.5703782772141481 0.17455850294608977
v 0.18450000065565111 0.6796217227858519 -0.3545585029460898
v 0.18450000065565111 1.4803433385776126 0.28694047676501244
v 0.18450000065565111 0.7696566614223874 -0.4669404767650125
v 0.3014999993443489 0.7696566614223874 -0.4669404767650125
v 0.18450000065565111 1.5703782772141481 0.17455850294608977
v 0.3014999993443489 1.5703782772141481 0.17455850294608977
v 0.18450000065565111 1.4803433385776126 0.28694047676501244
v 0.3014999993443489 1.4803433385776126 0.28694047676501244
v 0.18450000065565111 0.6796217227858519 -0.3545585029460898
v 0.3014999993443489 0.6796217227858519 -0.3545585029460898
v 0.18450000065565111 1.5703782772141481 0.17455850294608977
v 0.3014999993443489 1.5703782772141481 0.17455850294608977
v 0.18450000065565111 1.4803433385776126 0.28694047676501244
v 0.3014999993443489 1.4803433385776126 0.28694047676501244
v 0.3014999993443489 0.7696566614223874 -0.4669404767650125
v 0.18450000065565111 0.7696566614223874 -0.4669404767650125
v 0.3014999993443489 0.6796217227858519 -0.3545585029460898
v 0.18450000065565111 0.6796217227858519 -0.3545585029460898
vt 0 1
vt 1 1
vt 0 0
vt 1 0
vt 0 1
vt 1 1
vt 0 0
vt 1 0
vt 0 1
vt 1 1
vt 0 0
vt 1 0
vt 0 1
vt 1 1
vt 0 0
vt 1 0
vt 0 1
vt 1 1
vt 0 0
vt 1 0
vt 0 1
vt 1 1
vt 0 0
vt 1 0
vn 1 0 0
vn 1 0 0
vn 1 0 0
vn 1 0 0
vn -1 0 0
vn -1 0 0
vn -1 0 0
vn -1 0 0
vn 0 0.6252426563357052 -0.7804304073383297
vn 0 0.6252426563357052 -0.7804304073383297
vn 0 0.6252426563357052 -0.7804304073383297
vn 0 0.6252426563357052 -0.7804304073383297
vn 0 -0.6252426563357052 0.7804304073383297
vn 0 -0.6252426563357052 0.7804304073383297
vn 0 -0.6252426563357052 0.7804304073383297
vn 0 -0.6252426563357052 0.7804304073383297
vn 0 0.7804304073383297 0.6252426563357052
vn 0 0.7804304073383297 0.6252426563357052
vn 0 0.7804304073383297 0.6252426563357052
vn 0 0.7804304073383297 0.6252426563357052
vn 0 -0.7804304073383297 -0.6252426563357052
vn 0 -0.7804304073383297 -0.6252426563357052
vn 0 -0.7804304073383297 -0.6252426563357052
vn 0 -0.7804304073383297 -0.6252426563357052
f 343/343/343 345/345/345 344/344/344
f 345/345/345 346/346/346 344/344/344
f 347/347/347 349/349/349 348/348/348
f 349/349/349 350/350/350 348/348/348
f 351/351/351 353/353/353 352/352/352
f 353/353/353 354/354/354 352/352/352
f 355/355/355 357/357/357 356/356/356
f 357/357/357 358/358/358 356/356/356
f 359/359/359 361/361/361 360/360/360
f 361/361/361 362/362/362 360/360/360
f 363/363/363 365/365/365 364/364/364
f 365/365/365 366/366/366 364/364/364
o rear-cross-brace
usemtl timber
v 0.35100001096725464 0.8774999997317792 -0.26099999859929085
v 0.35100001096725464 0.8774999997317792 -0.36900000140070915
v 0.35100001096725464 0.778500000268221 -0.26099999859929085
v 0.35100001096725464 0.778500000268221 -0.36900000140070915
v -0.35100001096725464 0.8774999997317792 -0.36900000140070915
v -0.35100001096725464 0.8774999997317792 -0.26099999859929085
v -0.35100001096725464 0.778500000268221 -0.36900000140070915
v -0.35100001096725464 0.778500000268221 -0.26099999859929085
v -0.35100001096725464 0.8774999997317792 -0.36900000140070915
v 0.35100001096725464 0.8774999997317792 -0.36900000140070915
v -0.35100001096725464 0.8774999997317792 -0.26099999859929085
v 0.35100001096725464 0.8774999997317792 -0.26099999859929085
v -0.35100001096725464 0.778500000268221 -0.26099999859929085
v 0.35100001096725464 0.778500000268221 -0.26099999859929085
v -0.35100001096725464 0.778500000268221 -0.36900000140070915
v 0.35100001096725464 0.778500000268221 -0.36900000140070915
v -0.35100001096725464 0.8774999997317792 -0.26099999859929085
v 0.35100001096725464 0.8774999997317792 -0.26099999859929085
v -0.35100001096725464 0.778500000268221 -0.26099999859929085
v 0.35100001096725464 0.778500000268221 -0.26099999859929085
v 0.35100001096725464 0.8774999997317792 -0.36900000140070915
v -0.35100001096725464 0.8774999997317792 -0.36900000140070915
v 0.35100001096725464 0.778500000268221 -0.36900000140070915
v -0.35100001096725464 0.778500000268221 -0.36900000140070915
vt 0 1
vt 1 1
vt 0 0
vt 1 0
vt 0 1
vt 1 1
vt 0 0
vt 1 0
vt 0 1
vt 1 1
vt 0 0
vt 1 0
vt 0 1
vt 1 1
vt 0 0
vt 1 0
vt 0 1
vt 1 1
vt 0 0
vt 1 0
vt 0 1
vt 1 1
vt 0 0
vt 1 0
vn 1 0 0
vn 1 0 0
vn 1 0 0
vn 1 0 0
vn -1 0 0
vn -1 0 0
vn -1 0 0
vn -1 0 0
vn 0 1 0
vn 0 1 0
vn 0 1 0
vn 0 1 0
vn 0 -1 0
vn 0 -1 0
vn 0 -1 0
vn 0 -1 0
vn 0 0 1
vn 0 0 1
vn 0 0 1
vn 0 0 1
vn 0 0 -1
vn 0 0 -1
vn 0 0 -1
vn 0 0 -1
f 367/367/367 369/369/369 368/368/368
f 369/369/369 370/370/370 368/368/368
f 371/371/371 373/373/373 372/372/372
f 373/373/373 374/374/374 372/372/372
f 375/375/375 377/377/377 376/376/376
f 377/377/377 378/378/378 376/376/376
f 379/379/379 381/381/381 380/380/380
f 381/381/381 382/382/382 380/380/380
f 383/383/383 385/385/385 384/384/384
f 385/385/385 386/386/386 384/384/384
f 387/387/387 389/389/389 388/388/388
f 389/389/389 390/390/390 388/388/388
o rear-cross-brace
usemtl timber
v 0.35100001096725464 1.1474999997317792 0.03600000140070915
v 0.35100001096725464 1.1474999997317792 -0.07200000140070915
v 0.35100001096725464 1.048500000268221 0.03600000140070915
v 0.35100001096725464 1.048500000268221 -0.07200000140070915
v -0.35100001096725464 1.1474999997317792 -0.07200000140070915
v -0.35100001096725464 1.1474999997317792 0.03600000140070915
v -0.35100001096725464 1.048500000268221 -0.07200000140070915
v -0.35100001096725464 1.048500000268221 0.03600000140070915
v -0.35100001096725464 1.1474999997317792 -0.07200000140070915
v 0.35100001096725464 1.1474999997317792 -0.07200000140070915
v -0.35100001096725464 1.1474999997317792 0.03600000140070915
v 0.35100001096725464 1.1474999997317792 0.03600000140070915
v -0.35100001096725464 1.048500000268221 0.03600000140070915
v 0.35100001096725464 1.048500000268221 0.03600000140070915
v -0.35100001096725464 1.048500000268221 -0.07200000140070915
v 0.35100001096725464 1.048500000268221 -0.07200000140070915
v -0.35100001096725464 1.1474999997317792 0.03600000140070915
v 0.35100001096725464 1.1474999997317792 0.03600000140070915
v -0.35100001096725464 1.048500000268221 0.03600000140070915
v 0.35100001096725464 1.048500000268221 0.03600000140070915
v 0.35100001096725464 1.1474999997317792 -0.07200000140070915
v -0.35100001096725464 1.1474999997317792 -0.07200000140070915
v 0.35100001096725464 1.048500000268221 -0.07200000140070915
v -0.35100001096725464 1.048500000268221 -0.07200000140070915
vt 0 1
vt 1 1
vt 0 0
vt 1 0
vt 0 1
vt 1 1
vt 0 0
vt 1 0
vt 0 1
vt 1 1
vt 0 0
vt 1 0
vt 0 1
vt 1 1
vt 0 0
vt 1 0
vt 0 1
vt 1 1
vt 0 0
vt 1 0
vt 0 1
vt 1 1
vt 0 0
vt 1 0
vn 1 0 0
vn 1 0 0
vn 1 0 0
vn 1 0 0
vn -1 0 0
vn -1 0 0
vn -1 0 0
vn -1 0 0
vn 0 1 0
vn 0 1 0
vn 0 1 0
vn 0 1 0
vn 0 -1 0
vn 0 -1 0
vn 0 -1 0
vn 0 -1 0
vn 0 0 1
vn 0 0 1
vn 0 0 1
vn 0 0 1
vn 0 0 -1
vn 0 0 -1
vn 0 0 -1
vn 0 0 -1
f 391/391/391 393/393/393 392/392/392
f 393/393/393 394/394/394 392/392/392
f 395/395/395 397/397/397 396/396/396
f 397/397/397 398/398/398 396/396/396
f 399/399/399 401/401/401 400/400/400
f 401/401/401 402/402/402 400/400/400
f 403/403/403 405/405/405 404/404/404
f 405/405/405 406/406/406 404/404/404
f 407/407/407 409/409/409 408/408/408
f 409/409/409 410/410/410 408/408/408
f 411/411/411 413/413/413 412/412/412
f 413/413/413 414/414/414 412/412/412
o rear-cross-brace
usemtl timber
v 0.35100001096725464 1.3994999997317792 0.27900000140070913
v 0.35100001096725464 1.3994999997317792 0.17099999859929085
v 0.35100001096725464 1.300500000268221 0.27900000140070913
v 0.35100001096725464 1.300500000268221 0.17099999859929085
v -0.35100001096725464 1.3994999997317792 0.17099999859929085
v -0.35100001096725464 1.3994999997317792 0.27900000140070913
v -0.35100001096725464 1.300500000268221 0.17099999859929085
v -0.35100001096725464 1.300500000268221 0.27900000140070913
v -0.35100001096725464 1.3994999997317792 0.17099999859929085
v 0.35100001096725464 1.3994999997317792 0.17099999859929085
v -0.35100001096725464 1.3994999997317792 0.27900000140070913
v 0.35100001096725464 1.3994999997317792 0.27900000140070913
v -0.35100001096725464 1.300500000268221 0.27900000140070913
v 0.35100001096725464 1.300500000268221 0.27900000140070913
v -0.35100001096725464 1.300500000268221 0.17099999859929085
v 0.35100001096725464 1.300500000268221 0.17099999859929085
v -0.35100001096725464 1.3994999997317792 0.27900000140070913
v 0.35100001096725464 1.3994999997317792 0.27900000140070913
v -0.35100001096725464 1.300500000268221 0.27900000140070913
v 0.35100001096725464 1.300500000268221 0.27900000140070913
v 0.35100001096725464 1.3994999997317792 0.17099999859929085
v -0.35100001096725464 1.3994999997317792 0.17099999859929085
v 0.35100001096725464 1.300500000268221 0.17099999859929085
v -0.35100001096725464 1.300500000268221 0.17099999859929085
vt 0 1
vt 1 1
vt 0 0
vt 1 0
vt 0 1
vt 1 1
vt 0 0
vt 1 0
vt 0 1
vt 1 1
vt 0 0
vt 1 0
vt 0 1
vt 1 1
vt 0 0
vt 1 0
vt 0 1
vt 1 1
vt 0 0
vt 1 0
vt 0 1
vt 1 1
vt 0 0
vt 1 0
vn 1 0 0
vn 1 0 0
vn 1 0 0
vn 1 0 0
vn -1 0 0
vn -1 0 0
vn -1 0 0
vn -1 0 0
vn 0 1 0
vn 0 1 0
vn 0 1 0
vn 0 1 0
vn 0 -1 0
vn 0 -1 0
vn 0 -1 0
vn 0 -1 0
vn 0 0 1
vn 0 0 1
vn 0 0 1
vn 0 0 1
vn 0 0 -1
vn 0 0 -1
vn 0 0 -1
vn 0 0 -1
f 415/415/415 417/417/417 416/416/416
f 417/417/417 418/418/418 416/416/416
f 419/419/419 421/421/421 420/420/420
f 421/421/421 422/422/422 420/420/420
f 423/423/423 425/425/425 424/424/424
f 425/425/425 426/426/426 424/424/424
f 427/427/427 429/429/429 428/428/428
f 429/429/429 430/430/430 428/428/428
f 431/431/431 433/433/433 432/432/432
f 433/433/433 434/434/434 432/432/432
f 435/435/435 437/437/437 436/436/436
f 437/437/437 438/438/438 436/436/436
o buried-rear-stone-footing
usemtl stone-accent
v 0.36899998784065247 0.38700000023841863 -0.20700000053644185
v 0.36899998784065247 0.38700000023841863 -0.40499999946355825
v 0.36899998784065247 0.22499999976158147 -0.20700000053644185
v 0.36899998784065247 0.22499999976158147 -0.40499999946355825
v -0.36899998784065247 0.38700000023841863 -0.40499999946355825
v -0.36899998784065247 0.38700000023841863 -0.20700000053644185
v -0.36899998784065247 0.22499999976158147 -0.40499999946355825
v -0.36899998784065247 0.22499999976158147 -0.20700000053644185
v -0.36899998784065247 0.38700000023841863 -0.40499999946355825
v 0.36899998784065247 0.38700000023841863 -0.40499999946355825
v -0.36899998784065247 0.38700000023841863 -0.20700000053644185
v 0.36899998784065247 0.38700000023841863 -0.20700000053644185
v -0.36899998784065247 0.22499999976158147 -0.20700000053644185
v 0.36899998784065247 0.22499999976158147 -0.20700000053644185
v -0.36899998784065247 0.22499999976158147 -0.40499999946355825
v 0.36899998784065247 0.22499999976158147 -0.40499999946355825
v -0.36899998784065247 0.38700000023841863 -0.20700000053644185
v 0.36899998784065247 0.38700000023841863 -0.20700000053644185
v -0.36899998784065247 0.22499999976158147 -0.20700000053644185
v 0.36899998784065247 0.22499999976158147 -0.20700000053644185
v 0.36899998784065247 0.38700000023841863 -0.40499999946355825
v -0.36899998784065247 0.38700000023841863 -0.40499999946355825
v 0.36899998784065247 0.22499999976158147 -0.40499999946355825
v -0.36899998784065247 0.22499999976158147 -0.40499999946355825
vt 0 1
vt 1 1
vt 0 0
vt 1 0
vt 0 1
vt 1 1
vt 0 0
vt 1 0
vt 0 1
vt 1 1
vt 0 0
vt 1 0
vt 0 1
vt 1 1
vt 0 0
vt 1 0
vt 0 1
vt 1 1
vt 0 0
vt 1 0
vt 0 1
vt 1 1
vt 0 0
vt 1 0
vn 1 0 0
vn 1 0 0
vn 1 0 0
vn 1 0 0
vn -1 0 0
vn -1 0 0
vn -1 0 0
vn -1 0 0
vn 0 1 0
vn 0 1 0
vn 0 1 0
vn 0 1 0
vn 0 -1 0
vn 0 -1 0
vn 0 -1 0
vn 0 -1 0
vn 0 0 1
vn 0 0 1
vn 0 0 1
vn 0 0 1
vn 0 0 -1
vn 0 0 -1
vn 0 0 -1
vn 0 0 -1
f 439/439/439 441/441/441 440/440/440
f 441/441/441 442/442/442 440/440/440
f 443/443/443 445/445/445 444/444/444
f 445/445/445 446/446/446 444/444/444
f 447/447/447 449/449/449 448/448/448
f 449/449/449 450/450/450 448/448/448
f 451/451/451 453/453/453 452/452/452
f 453/453/453 454/454/454 452/452/452
f 455/455/455 457/457/457 456/456/456
f 457/457/457 458/458/458 456/456/456
f 459/459/459 461/461/461 460/460/460
f 461/461/461 462/462/462 460/460/460
