<?xml version="1.0" encoding="UTF-8"?>
<svg id="Layer_2" data-name="Layer 2" xmlns="http://www.w3.org/2000/svg" viewBox="0 0 1065.82 193.37">
  <defs>
    <style>
      .cls-1 {
        fill: #9a9a9a;
      }

      .cls-2 {
        fill: #f2f3de;
        stroke-width: 3px;
      }

      .cls-2, .cls-3 {
        stroke: #634821;
        stroke-miterlimit: 10;
      }

      .cls-3 {
        fill: #e5dd4d;
        stroke-width: 5px;
      }
    </style>
  </defs>
  <g id="Layer_1-2" data-name="Layer 1">
    <g>
      <g>
        <path class="cls-1" d="M112.97,86.69c.08,1.68-.51,3.31-1.64,4.56l-27.44,30.44c-1.2,1.34-2.92,2.1-4.72,2.1h-40.18c-1.76,0-3.44-.73-4.64-2.01l-28.44-30.41c-1.06-1.14-1.67-2.62-1.71-4.18L2.5,20.42c-.04-1.71.61-3.37,1.8-4.6,1.2-1.23,2.84-1.92,4.55-1.92h30.4c1.69,0,3.32.68,4.51,1.88s1.86,2.83,1.84,4.53l-.38,52.13c2.13,5.71,4.83,11.19,8.04,16.36,1.17,1.25,2.79,1.98,4.5,2.01,1.71.04,3.36-.61,4.58-1.81,3.92-5.9,7.09-12.26,9.45-18.94l-5.91-49.35c-.22-1.8.35-3.62,1.56-4.97,1.21-1.36,2.94-2.14,4.75-2.14l31.26.3c3.39,0,6.19,2.67,6.35,6.06l3.14,66.73Z"/>
        <path class="cls-1" d="M165.3,123.78h-38.62c-1.77,0-3.46-.73-4.68-2.03s-1.84-3.03-1.73-4.79l6.13-97.09c.21-3.38,3.01-6.02,6.4-6.02h26.38c3.39,0,6.19,2.64,6.4,6.02l6.13,97.09c.11,1.77-.51,3.51-1.73,4.8-1.21,1.29-2.91,2.02-4.68,2.02Z"/>
        <path class="cls-1" d="M275.55,87.88l18.6,9.55c1.26.65,2.16,1.83,2.44,3.23.28,1.39-.1,2.83-1.02,3.91l-6.63,17.58c-.88,1.04-2.18,1.64-3.54,1.64h-104.11c-1.28,0-2.5-.53-3.38-1.46s-1.33-2.18-1.26-3.46l6.36-100.64c.14-2.46,2.17-4.37,4.63-4.38h31.28c1.71,0,3.29.94,4.1,2.45l12.66,23.63c.77,1.44.73,3.18-.11,4.58-.84,1.4-2.35,2.26-3.99,2.26-1.26,0-2.47.52-3.35,1.43s-1.34,2.14-1.29,3.4l1.82,36.16c.1,2.49,2.15,4.46,4.64,4.46h31.47c1.29,0,2.52-.54,3.4-1.48l1.76-1.9c1.42-1.52,3.68-1.91,5.52-.95Z"/>
        <path class="cls-1" d="M396.15,87.88l18.6,9.55c1.26.65,2.16,1.83,2.44,3.23.28,1.39-.1,2.83-1.02,3.91l-6.63,17.58c-.88,1.04-2.18,1.64-3.54,1.64h-104.11c-1.28,0-2.5-.53-3.38-1.46-.88-.93-1.33-2.18-1.26-3.46l6.36-100.64c.14-2.46,2.17-4.37,4.63-4.38h31.28c1.71,0,3.29.94,4.1,2.45l12.66,23.63c.77,1.44.73,3.18-.11,4.58-.84,1.4-2.35,2.26-3.99,2.26-1.26,0-2.47.52-3.34,1.43-.88.91-1.34,2.14-1.29,3.4l1.82,36.16c.1,2.49,2.15,4.46,4.64,4.46h31.47c1.29,0,2.52-.54,3.4-1.48l1.76-1.9c1.42-1.52,3.68-1.91,5.52-.95Z"/>
        <path class="cls-1" d="M494.38,119.41l-2.56-9.76c-.71-2.7-3.23-4.52-6.02-4.34l-1.09.07c-1.55.09-2.99.8-4.02,1.96-1.03,1.16-1.55,2.68-1.45,4.23l.38,6.02c.1,1.61-.46,3.19-1.57,4.37-1.1,1.18-2.64,1.84-4.26,1.84h-39.86c-1.61,0-3.15-.67-4.25-1.84-1.1-1.18-1.67-2.75-1.57-4.36l.11-1.88c.11-1.68-.51-3.31-1.7-4.5s-2.83-1.8-4.5-1.69c-1.61.11-3.19-.46-4.37-1.56-1.18-1.1-1.85-2.64-1.85-4.26v-22.75c0-1.61.67-3.16,1.85-4.26,1.18-1.1,2.76-1.67,4.37-1.57l2.89.19c1.55.1,3.08-.42,4.24-1.44,1.17-1.03,1.87-2.48,1.97-4.03l3.19-50.51c.2-3.07,2.75-5.47,5.83-5.47h60.93c2.42,0,4.59,1.47,5.47,3.73l38.15,98.25c.7,1.8.47,3.82-.62,5.41-1.09,1.59-2.89,2.54-4.82,2.54h-39.26c-2.64-.02-4.94-1.81-5.61-4.37ZM483.76,79.16l-8.66-33.13,2.07,32.7,6.6.43Z"/>
        <path class="cls-1" d="M646.39,59.61c1.43-.99,3.38-.64,4.38.78l14.51,20.56c.55.78.72,1.76.46,2.68l-10.75,37.88c-.38,1.36-1.62,2.29-3.04,2.29h-102.5c-.87,0-1.7-.36-2.3-1s-.9-1.49-.85-2.36l6.56-103.58c.1-1.66,1.48-2.95,3.15-2.95h77.43c.7,0,1.37.23,1.92.66l27.01,20.78c.84.65,1.3,1.68,1.22,2.74-.08,1.06-.69,2.01-1.62,2.52l-22.69,12.55c-.94.51-2.07.51-3,0l-11.15-5.89c-.45-.24-.96-.37-1.47-.37h-30.08l.05,1.09,2.99,41.31c.11,1.65,1.49,2.94,3.14,2.94h22.76l-5.59-7.99c-.63-.67-.94-1.58-.84-2.5.1-.92.59-1.74,1.35-2.26l28.94-19.89Z"/>
        <path class="cls-1" d="M798.72,100.91c.41,2.04-.14,4.16-1.49,5.74l-4.21,14.66c-1.27,1.53-3.15,2.41-5.14,2.41h-97.91c-1.88,0-3.67-.77-4.96-2.14-1.29-1.37-1.95-3.21-1.83-5.08l.71-11.21-.55.16v.05l-.98.33c-1.53.54-3.23.38-4.63-.45-1.4-.82-2.37-2.22-2.65-3.82l-1.15-7.17-2.41-14.88c-.59-3.5,1.63-6.85,5.09-7.66l4.7-1.2c2.9-.69,4.99-3.21,5.14-6.18l2.79-44.3c.24-3.57,3.21-6.34,6.78-6.34h72.75c1.5,0,2.97.5,4.16,1.42l21.66,16.63c1.81,1.41,2.79,3.63,2.62,5.92-.18,2.29-1.49,4.34-3.49,5.45l-16.13,8.92c-2.01,1.08-4.43,1.1-6.45.05l-8.64-4.59c-.98-.5-2.07-.76-3.17-.77h-29.15v.11l.77,5.42c.48,3.35,3.34,5.84,6.73,5.85h23.19c1.9,0,3.72.81,5.01,2.21,1.29,1.4,1.93,3.28,1.78,5.18l-.49,5.42c-.22,2.65-1.98,4.92-4.49,5.8l-27.4,9.9-.99.33-.65.23c.82,2.89,3.45,4.89,6.45,4.92h27.29c1.89,0,3.7-.79,4.98-2.19,2.08-2.23,5.38-2.81,8.09-1.42l14.71,7.55c1.85.95,3.17,2.7,3.57,4.74Z"/>
        <path class="cls-1" d="M939.9,121.55c-.99,1.39-2.59,2.22-4.29,2.22h-30.08c-1.44,0-2.82-.59-3.81-1.63-1-1.04-1.53-2.44-1.47-3.88l.51-12.19c.1-2.49-1.54-4.71-3.96-5.33l-20.78-5.38c-1.03-.27-2.11-.22-3.11.14l-4.26,1.54-.98.33-.91.34.89,25.88v.2h-46.67c-1.46,0-2.85-.61-3.85-1.67-1-1.06-1.51-2.49-1.42-3.95l.49-7.78-1.77.55c-1.49.48-3.12.28-4.46-.53-1.34-.82-2.25-2.18-2.51-3.72l-1.19-7.25-2.7-16.5c-.45-2.72,1.27-5.32,3.95-5.98l7.19-1.77c2.24-.55,3.86-2.5,4-4.8l3.28-51.6c.17-2.78,2.48-4.95,5.27-4.95h74.66c1.17,0,2.3.39,3.22,1.09l27.63,21.25c1.62,1.25,2.38,3.33,1.94,5.33l-5.39,24.26c-.41,1.85-1.79,3.34-3.6,3.9l-1.19.37c-2.31.72-3.84,2.92-3.71,5.33s1.88,4.44,4.26,4.91l.38.07c1.85.36,3.36,1.69,3.96,3.48l11.17,32.91c.56,1.61.3,3.39-.69,4.78ZM890.94,48.95c-1-1.3-2.55-2.06-4.19-2.06h-23.97v.12l2.25,16.16,23.03-5.89c1.85-.47,3.3-1.91,3.8-3.76.42-1.59.08-3.28-.92-4.58Z"/>
        <path class="cls-1" d="M1062.46,83.47c.77,1.2,1.04,2.66.75,4.06l-4.35,21c-.19.9-.6,1.74-1.19,2.44l-9.3,10.86c-1.04,1.21-2.55,1.91-4.15,1.91h-80.05c-1.18,0-2.33-.38-3.28-1.09l-15.28-11.53c-1.51-1.15-2.32-3-2.14-4.88.18-1.89,1.33-3.55,3.03-4.38l26.07-16.63c1.71-.83,3.74-.71,5.34.32l9.08,5.84c.88.56,1.9.86,2.95.86h33.85c1.59,0,3.1-.7,4.14-1.9,2.75-3.19.74-4.11-3.4-4.88l-26.77-4.92-37.51-7.11c-.94-.18-1.81-.6-2.53-1.21l-13.35-11.41c-1.33-1.14-2.04-2.85-1.9-4.59l.76-9.3.3-9.11c.05-1.61.81-3.12,2.08-4.11l23.22-18.27c.95-.75,2.13-1.16,3.34-1.17l52.8-.36c1.22-.01,2.41.39,3.37,1.13l23.59,18.17c1.45,1.13,2.24,2.91,2.1,4.74s-1.19,3.47-2.8,4.37l-18.57,10.25c-1.61.89-3.56.9-5.19.04l-9.54-5.04c-.79-.42-1.66-.63-2.55-.63h-29.49l.21,5.13,62.64,13.16c1.43.3,2.68,1.16,3.47,2.4l10.22,15.88Z"/>
      </g>
      <g>
        <path class="cls-1" d="M156.73,193.36h-17.08c-.78,0-1.53-.33-2.07-.9-.54-.57-.81-1.34-.76-2.12l2.71-42.96c.09-1.5,1.33-2.66,2.83-2.66h11.67c1.5,0,2.74,1.17,2.83,2.66l2.71,42.96c.05.78-.23,1.55-.76,2.12-.54.57-1.29.9-2.07.89Z"/>
        <path class="cls-1" d="M217.82,154.8c.59.45.9,1.17.83,1.91l-2,21.53c-.05.5-.27.97-.62,1.33l-13.17,13.16c-.4.41-.95.63-1.53.63h-33.4c-.6,0-1.17-.25-1.57-.68-.41-.43-.62-1.02-.58-1.61l1.45-22.89c.05-.73-.28-1.44-.87-1.87-.59-.44-1.36-.54-2.05-.28-.66.25-1.41.16-1.99-.24-.58-.4-.93-1.07-.93-1.78v-17.11c0-1.19.97-2.16,2.16-2.16h40.46c.48,0,.94.16,1.32.45l12.49,9.63ZM198.97,177.27l3.01-7.73c.09-.24.14-.49.15-.74l.1-4.58c.02-.78-.38-1.5-1.05-1.9l-4.45-2.66c-.33-.2-.72-.31-1.11-.31h-8.97l1.31,17.57c.09,1.16,1.08,2.05,2.24,2l6.85-.29c.85-.03,1.61-.57,1.92-1.36Z"/>
        <path class="cls-1" d="M263.93,177.48l8.23,4.22c.56.29.96.81,1.08,1.43.12.62-.04,1.25-.45,1.73l-2.93,7.78c-.39.46-.96.72-1.57.73h-46.06c-.57,0-1.11-.23-1.5-.65-.39-.41-.59-.97-.56-1.53l2.81-44.53c.06-1.09.96-1.93,2.05-1.94h13.84c.76,0,1.45.42,1.81,1.08l5.6,10.45c.34.64.32,1.41-.05,2.03s-1.04,1-1.76,1c-.56,0-1.09.23-1.48.63-.39.4-.59.95-.57,1.5l.8,16c.04,1.1.95,1.97,2.05,1.97h13.92c.57,0,1.12-.24,1.5-.65l.78-.84c.63-.67,1.63-.84,2.44-.42Z"/>
        <path class="cls-1" d="M330.88,183.24c.18.9-.06,1.84-.66,2.54l-1.86,6.49c-.56.68-1.4,1.07-2.28,1.06h-43.32c-.83,0-1.62-.34-2.19-.95-.57-.61-.86-1.42-.81-2.25l.31-4.96-.24.07v.02l-.44.14c-.68.24-1.43.17-2.05-.2s-1.05-.98-1.17-1.69l-.51-3.17-1.07-6.58c-.26-1.55.72-3.03,2.25-3.39l2.08-.53c1.28-.3,2.21-1.42,2.27-2.73l1.23-19.6c.11-1.58,1.42-2.8,3-2.81h32.18c.67,0,1.31.22,1.84.63l9.58,7.36c.8.62,1.24,1.61,1.16,2.62-.08,1.01-.66,1.92-1.54,2.41l-7.14,3.94c-.89.48-1.96.49-2.86.02l-3.82-2.03c-.43-.22-.92-.34-1.4-.34h-12.9v.05l.34,2.4c.21,1.48,1.48,2.58,2.98,2.59h10.26c.84,0,1.65.36,2.21.98.57.62.85,1.45.79,2.29l-.22,2.4c-.1,1.17-.88,2.18-1.98,2.57l-12.12,4.38-.44.15-.29.1c.36,1.28,1.52,2.17,2.85,2.18h12.08c.84,0,1.64-.35,2.2-.97.92-.99,2.38-1.24,3.58-.63l6.51,3.34c.82.42,1.4,1.19,1.58,2.1Z"/>
        <path class="cls-1" d="M403.97,145.29c.51-.54,1.22-.85,1.96-.86l14.81.18c.73,0,1.43.29,1.94.82s.79,1.23.77,1.96l-.75,29.75c-.02.62-.25,1.22-.65,1.69l-11.56,13.46c-.51.6-1.26.94-2.05.94h-12.12c-.88,0-1.69-.46-2.15-1.21-.39-.63-1.04-1.06-1.78-1.17-.74-.11-1.48.11-2.04.6l-1.41,1.24c-.49.44-1.13.67-1.79.67h-13.17c-.75,0-1.46-.31-1.98-.86l-12.64-13.52c-.45-.49-.71-1.12-.73-1.78l-.75-29.68c-.02-.73.26-1.44.77-1.96.51-.52,1.21-.82,1.94-.82h13.4c.74,0,1.45.31,1.96.84.51.54.78,1.26.74,2.01l-1.47,27.54c-.07,1.27.76,2.42,1.99,2.76l.32.1c1.67.56,3.51.18,4.82-1,.18-.18.27-.31.27-.42l-2.12-22.93c-.07-.76.18-1.51.7-2.07s1.24-.88,2-.88h11.45c1.44,0,2.63,1.13,2.7,2.57l1.05,20.24c.03.67.32,1.3.79,1.77l2.24,2.24c1.15,1.15,2.26,1.49,3.26.2.22-1.7.22-3.43,0-5.13l-1.45-25.27c-.04-.74.22-1.47.73-2.02Z"/>
        <path class="cls-1" d="M476.53,154.85l1.45,23.12c.05.79-.14,1.58-.54,2.26l-6.58,11.16c-.71,1.21-2.01,1.95-3.41,1.95h-30.44c-1.42,0-2.73-.76-3.44-1.98l-6.68-11.6c-.39-.67-.57-1.45-.52-2.23l1.48-23.44c.07-1.14.63-2.19,1.53-2.89l7.31-5.65c.69-.53,1.54-.83,2.42-.83h27.21c1.07,0,2.09.44,2.84,1.21l6.25,6.41c.66.68,1.05,1.56,1.12,2.51ZM453.02,178.73c2.1,0,3.83-1.62,3.96-3.72l.71-11.45c.07-1.09-.32-2.17-1.07-2.96-.75-.8-1.79-1.25-2.89-1.25h-3.15c-1.1,0-2.14.45-2.89,1.25-.75.8-1.13,1.87-1.07,2.97l.73,11.45c.13,2.09,1.87,3.71,3.96,3.71h1.7Z"/>
        <path class="cls-1" d="M539.23,192.37c-.44.62-1.14.98-1.9.98h-13.31c-.64,0-1.25-.26-1.69-.72-.44-.46-.67-1.08-.65-1.71l.23-5.39c.05-1.1-.68-2.08-1.75-2.36l-9.19-2.38c-.46-.12-.94-.1-1.38.06l-1.89.68-.44.14-.4.15.39,11.45v.09h-20.65c-.65,0-1.26-.27-1.7-.74s-.67-1.1-.63-1.75l.22-3.44-.78.24c-.66.21-1.38.13-1.97-.24-.59-.36-1-.96-1.11-1.65l-.53-3.21-1.2-7.3c-.2-1.2.56-2.35,1.75-2.64l3.18-.78c.99-.24,1.71-1.1,1.77-2.12l1.45-22.83c.08-1.23,1.1-2.19,2.33-2.19h33.03c.52,0,1.02.17,1.42.48l12.23,9.4c.72.55,1.05,1.47.86,2.36l-2.39,10.73c-.18.82-.79,1.48-1.59,1.73l-.53.16c-1.02.32-1.7,1.29-1.64,2.36.06,1.07.83,1.96,1.88,2.17l.17.03c.82.16,1.49.75,1.75,1.54l4.94,14.56c.25.71.13,1.5-.3,2.12ZM517.57,160.25c-.44-.58-1.13-.91-1.85-.91h-10.6v.05l1,7.15,10.19-2.6c.82-.21,1.46-.84,1.68-1.66.19-.7.04-1.45-.41-2.03Z"/>
        <path class="cls-1" d="M584.61,177.48l8.23,4.22c.56.29.96.81,1.08,1.43.12.62-.04,1.25-.45,1.73l-2.93,7.78c-.39.46-.96.72-1.57.73h-46.06c-.57,0-1.11-.23-1.5-.65-.39-.41-.59-.97-.56-1.53l2.81-44.53c.06-1.09.96-1.93,2.05-1.94h13.84c.76,0,1.45.42,1.81,1.08l5.6,10.45c.34.64.32,1.41-.05,2.03s-1.04,1-1.76,1c-.56,0-1.09.23-1.48.63-.39.4-.59.95-.57,1.5l.8,16c.04,1.1.95,1.97,2.05,1.97h13.92c.57,0,1.12-.24,1.5-.65l.78-.84c.63-.67,1.63-.84,2.44-.42Z"/>
        <path class="cls-1" d="M648.55,154.8c.59.45.9,1.17.83,1.91l-2,21.53c-.05.5-.27.97-.62,1.33l-13.17,13.16c-.4.41-.95.63-1.53.63h-33.4c-.6,0-1.17-.25-1.57-.68-.41-.43-.62-1.02-.58-1.61l1.45-22.89c.05-.73-.28-1.44-.87-1.87-.59-.44-1.36-.54-2.05-.28-.66.25-1.41.16-1.99-.24-.58-.4-.93-1.07-.93-1.78v-17.11c0-1.19.97-2.16,2.16-2.16h40.46c.48,0,.94.16,1.32.45l12.49,9.63ZM629.7,177.27l3.01-7.73c.09-.24.14-.49.15-.74l.1-4.58c.02-.78-.38-1.5-1.05-1.9l-4.45-2.66c-.33-.2-.72-.31-1.11-.31h-8.97l1.31,17.57c.09,1.16,1.08,2.05,2.24,2l6.85-.29c.85-.03,1.61-.57,1.92-1.36Z"/>
        <path class="cls-1" d="M717.97,164.97c.63-.44,1.5-.28,1.94.35l6.42,9.1c.24.34.32.78.2,1.19l-4.76,16.76c-.17.6-.72,1.01-1.34,1.01h-45.35c-.39,0-.75-.16-1.02-.44-.26-.28-.4-.66-.37-1.04l2.9-45.83c.05-.73.66-1.31,1.39-1.31h34.26c.31,0,.61.1.85.29l11.95,9.2c.37.29.58.74.54,1.21-.04.47-.31.89-.72,1.12l-10.04,5.55c-.42.22-.91.22-1.33,0l-4.93-2.61c-.2-.11-.42-.16-.65-.16h-13.31l.02.48,1.32,18.28c.05.73.66,1.3,1.39,1.3h10.07l-2.47-3.53c-.28-.3-.42-.7-.37-1.1.04-.4.26-.77.6-1l12.8-8.8Z"/>
        <path class="cls-1" d="M761.88,191.42l-1.13-4.32c-.31-1.19-1.43-2-2.66-1.92l-.48.03c-.68.04-1.32.35-1.78.87s-.69,1.19-.64,1.87l.17,2.66c.05.71-.21,1.41-.69,1.93s-1.17.82-1.88.82h-17.64c-.71,0-1.39-.3-1.88-.82s-.74-1.22-.69-1.93l.05-.83c.05-.74-.23-1.47-.75-1.99-.53-.52-1.25-.8-1.99-.75-.71.05-1.41-.2-1.93-.69-.52-.49-.82-1.17-.82-1.88v-10.07c0-.71.3-1.4.82-1.88.52-.49,1.22-.74,1.93-.69l1.28.08c.69.05,1.36-.18,1.88-.64.52-.46.83-1.1.87-1.78l1.41-22.35c.09-1.36,1.21-2.42,2.58-2.42h26.96c1.07,0,2.03.65,2.42,1.65l16.88,43.47c.31.79.21,1.69-.28,2.39-.48.7-1.28,1.12-2.13,1.12h-17.37c-1.17,0-2.19-.8-2.48-1.93ZM757.18,173.62l-3.83-14.66.91,14.47,2.92.19Z"/>
        <path class="cls-1" d="M863.69,192.71c-.38.41-.92.65-1.48.65h-18.78c-.57,0-1.11-.23-1.49-.65-.39-.41-.58-.97-.55-1.53l.71-11.18c.07-1.05-.68-1.98-1.72-2.15-1.04-.17-2.04.48-2.3,1.5l-2.12,8.09c-.11.42-.08.86.07,1.26l1.8,4.65h-26.56l1.8-4.65c.16-.4.18-.84.07-1.26l-2.12-8.09c-.26-1.02-1.26-1.67-2.3-1.5-1.04.17-1.78,1.1-1.72,2.15l.71,11.18c.04.56-.16,1.12-.55,1.53-.39.41-.93.65-1.49.65h-18.78c-.57,0-1.11-.23-1.49-.65-.39-.41-.58-.97-.55-1.53l2.81-44.54c.07-1.08.96-1.92,2.04-1.92h27.84c.84,0,1.6.52,1.91,1.3l3.19,8.23c.31.79,1.06,1.3,1.91,1.3s1.6-.52,1.91-1.3l3.19-8.23c.31-.79,1.06-1.3,1.91-1.3h27.83c1.08,0,1.97.84,2.04,1.92l2.81,44.54c.04.56-.16,1.11-.54,1.52Z"/>
        <path class="cls-1" d="M923.69,183.24c.18.9-.06,1.84-.66,2.54l-1.86,6.49c-.56.68-1.4,1.07-2.28,1.06h-43.32c-.83,0-1.62-.34-2.19-.95-.57-.61-.86-1.42-.81-2.25l.31-4.96-.24.07v.02l-.44.14c-.68.24-1.43.17-2.05-.2s-1.05-.98-1.17-1.69l-.51-3.17-1.07-6.58c-.26-1.55.72-3.03,2.25-3.39l2.08-.53c1.28-.3,2.21-1.42,2.27-2.73l1.23-19.6c.11-1.58,1.42-2.8,3-2.81h32.18c.67,0,1.31.22,1.84.63l9.58,7.36c.8.62,1.24,1.61,1.16,2.62-.08,1.01-.66,1.92-1.54,2.41l-7.14,3.94c-.89.48-1.96.49-2.86.02l-3.82-2.03c-.43-.22-.92-.34-1.4-.34h-12.9v.05l.34,2.4c.21,1.48,1.48,2.58,2.98,2.59h10.26c.84,0,1.65.36,2.21.98.57.62.85,1.45.79,2.29l-.22,2.4c-.1,1.17-.88,2.18-1.98,2.57l-12.12,4.38-.44.15-.29.1c.36,1.28,1.52,2.17,2.85,2.18h12.08c.84,0,1.64-.35,2.2-.97.92-.99,2.38-1.24,3.58-.63l6.51,3.34c.82.42,1.4,1.19,1.58,2.1Z"/>
      </g>
      <g>
        <path class="cls-3" d="M112.97,75.59c.08,1.68-.51,3.31-1.64,4.56l-27.44,30.44c-1.2,1.34-2.92,2.1-4.72,2.1h-40.18c-1.76,0-3.44-.73-4.64-2.01l-28.44-30.41c-1.06-1.14-1.67-2.62-1.71-4.18L2.5,9.32c-.04-1.71.61-3.37,1.8-4.6,1.2-1.23,2.84-1.92,4.55-1.92h30.4c1.69,0,3.32.68,4.51,1.88s1.86,2.83,1.84,4.53l-.38,52.13c2.13,5.71,4.83,11.19,8.04,16.36,1.17,1.25,2.79,1.98,4.5,2.01,1.71.04,3.36-.61,4.58-1.81,3.92-5.9,7.09-12.26,9.45-18.94l-5.91-49.35c-.22-1.8.35-3.62,1.56-4.97,1.21-1.36,2.94-2.14,4.75-2.14l31.26.3c3.39,0,6.19,2.67,6.35,6.06l3.14,66.73Z"/>
        <path class="cls-3" d="M165.3,112.67h-38.62c-1.77,0-3.46-.73-4.68-2.03s-1.84-3.03-1.73-4.79l6.13-97.09c.21-3.38,3.01-6.02,6.4-6.02h26.38c3.39,0,6.19,2.64,6.4,6.02l6.13,97.09c.11,1.77-.51,3.51-1.73,4.8-1.21,1.29-2.91,2.02-4.68,2.02Z"/>
        <path class="cls-3" d="M275.55,76.78l18.6,9.55c1.26.65,2.16,1.83,2.44,3.23.28,1.39-.1,2.83-1.02,3.91l-6.63,17.58c-.88,1.04-2.18,1.64-3.54,1.64h-104.11c-1.28,0-2.5-.53-3.38-1.46s-1.33-2.18-1.26-3.46l6.36-100.64c.14-2.46,2.17-4.37,4.63-4.38h31.28c1.71,0,3.29.94,4.1,2.45l12.66,23.63c.77,1.44.73,3.18-.11,4.58-.84,1.4-2.35,2.26-3.99,2.26-1.26,0-2.47.52-3.35,1.43s-1.34,2.14-1.29,3.4l1.82,36.16c.1,2.49,2.15,4.46,4.64,4.46h31.47c1.29,0,2.52-.54,3.4-1.48l1.76-1.9c1.42-1.52,3.68-1.91,5.52-.95Z"/>
        <path class="cls-3" d="M396.15,76.78l18.6,9.55c1.26.65,2.16,1.83,2.44,3.23.28,1.39-.1,2.83-1.02,3.91l-6.63,17.58c-.88,1.04-2.18,1.64-3.54,1.64h-104.11c-1.28,0-2.5-.53-3.38-1.46-.88-.93-1.33-2.18-1.26-3.46l6.36-100.64c.14-2.46,2.17-4.37,4.63-4.38h31.28c1.71,0,3.29.94,4.1,2.45l12.66,23.63c.77,1.44.73,3.18-.11,4.58-.84,1.4-2.35,2.26-3.99,2.26-1.26,0-2.47.52-3.34,1.43-.88.91-1.34,2.14-1.29,3.4l1.82,36.16c.1,2.49,2.15,4.46,4.64,4.46h31.47c1.29,0,2.52-.54,3.4-1.48l1.76-1.9c1.42-1.52,3.68-1.91,5.52-.95Z"/>
        <path class="cls-3" d="M494.38,108.3l-2.56-9.76c-.71-2.7-3.23-4.52-6.02-4.34l-1.09.07c-1.55.09-2.99.8-4.02,1.96-1.03,1.16-1.55,2.68-1.45,4.23l.38,6.02c.1,1.61-.46,3.19-1.57,4.37-1.1,1.18-2.64,1.84-4.26,1.84h-39.86c-1.61,0-3.15-.67-4.25-1.84-1.1-1.18-1.67-2.75-1.57-4.36l.11-1.88c.11-1.68-.51-3.31-1.7-4.5s-2.83-1.8-4.5-1.69c-1.61.11-3.19-.46-4.37-1.56-1.18-1.1-1.85-2.64-1.85-4.26v-22.75c0-1.61.67-3.16,1.85-4.26,1.18-1.1,2.76-1.67,4.37-1.57l2.89.19c1.55.1,3.08-.42,4.24-1.44,1.17-1.03,1.87-2.48,1.97-4.03l3.19-50.51c.2-3.07,2.75-5.47,5.83-5.47h60.93c2.42,0,4.59,1.47,5.47,3.73l38.15,98.25c.7,1.8.47,3.82-.62,5.41-1.09,1.59-2.89,2.54-4.82,2.54h-39.26c-2.64-.02-4.94-1.81-5.61-4.37ZM483.76,68.05l-8.66-33.13,2.07,32.7,6.6.43Z"/>
        <path class="cls-3" d="M646.39,48.51c1.43-.99,3.38-.64,4.38.78l14.51,20.56c.55.78.72,1.76.46,2.68l-10.75,37.88c-.38,1.36-1.62,2.29-3.04,2.29h-102.5c-.87,0-1.7-.36-2.3-1s-.9-1.49-.85-2.36l6.56-103.58c.1-1.66,1.48-2.95,3.15-2.95h77.43c.7,0,1.37.23,1.92.66l27.01,20.78c.84.65,1.3,1.68,1.22,2.74-.08,1.06-.69,2.01-1.62,2.52l-22.69,12.55c-.94.51-2.07.51-3,0l-11.15-5.89c-.45-.24-.96-.37-1.47-.37h-30.08l.05,1.09,2.99,41.31c.11,1.65,1.49,2.94,3.14,2.94h22.76l-5.59-7.99c-.63-.67-.94-1.58-.84-2.5.1-.92.59-1.74,1.35-2.26l28.94-19.89Z"/>
        <path class="cls-3" d="M798.72,89.81c.41,2.04-.14,4.16-1.49,5.74l-4.21,14.66c-1.27,1.53-3.15,2.41-5.14,2.41h-97.91c-1.88,0-3.67-.77-4.96-2.14-1.29-1.37-1.95-3.21-1.83-5.08l.71-11.21-.55.16v.05l-.98.33c-1.53.54-3.23.38-4.63-.45-1.4-.82-2.37-2.22-2.65-3.82l-1.15-7.17-2.41-14.88c-.59-3.5,1.63-6.85,5.09-7.66l4.7-1.2c2.9-.69,4.99-3.21,5.14-6.18l2.79-44.3c.24-3.57,3.21-6.34,6.78-6.34h72.75c1.5,0,2.97.5,4.16,1.42l21.66,16.63c1.81,1.41,2.79,3.63,2.62,5.92-.18,2.29-1.49,4.34-3.49,5.45l-16.13,8.92c-2.01,1.08-4.43,1.1-6.45.05l-8.64-4.59c-.98-.5-2.07-.76-3.17-.77h-29.15v.11l.77,5.42c.48,3.35,3.34,5.84,6.73,5.85h23.19c1.9,0,3.72.81,5.01,2.21,1.29,1.4,1.93,3.28,1.78,5.18l-.49,5.42c-.22,2.65-1.98,4.92-4.49,5.8l-27.4,9.9-.99.33-.65.23c.82,2.89,3.45,4.89,6.45,4.92h27.29c1.89,0,3.7-.79,4.98-2.19,2.08-2.23,5.38-2.81,8.09-1.42l14.71,7.55c1.85.95,3.17,2.7,3.57,4.74Z"/>
        <path class="cls-3" d="M939.9,110.44c-.99,1.39-2.59,2.22-4.29,2.22h-30.08c-1.44,0-2.82-.59-3.81-1.63-1-1.04-1.53-2.44-1.47-3.88l.51-12.19c.1-2.49-1.54-4.71-3.96-5.33l-20.78-5.38c-1.03-.27-2.11-.22-3.11.14l-4.26,1.54-.98.33-.91.34.89,25.88v.2h-46.67c-1.46,0-2.85-.61-3.85-1.67-1-1.06-1.51-2.49-1.42-3.95l.49-7.78-1.77.55c-1.49.48-3.12.28-4.46-.53-1.34-.82-2.25-2.18-2.51-3.72l-1.19-7.25-2.7-16.5c-.45-2.72,1.27-5.32,3.95-5.98l7.19-1.77c2.24-.55,3.86-2.5,4-4.8l3.28-51.6c.17-2.78,2.48-4.95,5.27-4.95h74.66c1.17,0,2.3.39,3.22,1.09l27.63,21.25c1.62,1.25,2.38,3.33,1.94,5.33l-5.39,24.26c-.41,1.85-1.79,3.34-3.6,3.9l-1.19.37c-2.31.72-3.84,2.92-3.71,5.33s1.88,4.44,4.26,4.91l.38.07c1.85.36,3.36,1.69,3.96,3.48l11.17,32.91c.56,1.61.3,3.39-.69,4.78ZM890.94,37.85c-1-1.3-2.55-2.06-4.19-2.06h-23.97v.12l2.25,16.16,23.03-5.89c1.85-.47,3.3-1.91,3.8-3.76.42-1.59.08-3.28-.92-4.58Z"/>
        <path class="cls-3" d="M1062.46,72.37c.77,1.2,1.04,2.66.75,4.06l-4.35,21c-.19.9-.6,1.74-1.19,2.44l-9.3,10.86c-1.04,1.21-2.55,1.91-4.15,1.91h-80.05c-1.18,0-2.33-.38-3.28-1.09l-15.28-11.53c-1.51-1.15-2.32-3-2.14-4.88.18-1.89,1.33-3.55,3.03-4.38l26.07-16.63c1.71-.83,3.74-.71,5.34.32l9.08,5.84c.88.56,1.9.86,2.95.86h33.85c1.59,0,3.1-.7,4.14-1.9,2.75-3.19.74-4.11-3.4-4.88l-26.77-4.92-37.51-7.11c-.94-.18-1.81-.6-2.53-1.21l-13.35-11.41c-1.33-1.14-2.04-2.85-1.9-4.59l.76-9.3.3-9.11c.05-1.61.81-3.12,2.08-4.11l23.22-18.27c.95-.75,2.13-1.16,3.34-1.17l52.8-.36c1.22-.01,2.41.39,3.37,1.13l23.59,18.17c1.45,1.13,2.24,2.91,2.1,4.74s-1.19,3.47-2.8,4.37l-18.57,10.25c-1.61.89-3.56.9-5.19.04l-9.54-5.04c-.79-.42-1.66-.63-2.55-.63h-29.49l.21,5.13,62.64,13.16c1.43.3,2.68,1.16,3.47,2.4l10.22,15.88Z"/>
      </g>
      <g>
        <path class="cls-2" d="M156.73,182.25h-17.08c-.78,0-1.53-.33-2.07-.9-.54-.57-.81-1.34-.76-2.12l2.71-42.96c.09-1.5,1.33-2.66,2.83-2.66h11.67c1.5,0,2.74,1.17,2.83,2.66l2.71,42.96c.05.78-.23,1.55-.76,2.12-.54.57-1.29.9-2.07.89Z"/>
        <path class="cls-2" d="M217.82,143.7c.59.45.9,1.17.83,1.91l-2,21.53c-.05.5-.27.97-.62,1.33l-13.17,13.16c-.4.41-.95.63-1.53.63h-33.4c-.6,0-1.17-.25-1.57-.68-.41-.43-.62-1.02-.58-1.61l1.45-22.89c.05-.73-.28-1.44-.87-1.87-.59-.44-1.36-.54-2.05-.28-.66.25-1.41.16-1.99-.24-.58-.4-.93-1.07-.93-1.78v-17.11c0-1.19.97-2.16,2.16-2.16h40.46c.48,0,.94.16,1.32.45l12.49,9.63ZM198.97,166.17l3.01-7.73c.09-.24.14-.49.15-.74l.1-4.58c.02-.78-.38-1.5-1.05-1.9l-4.45-2.66c-.33-.2-.72-.31-1.11-.31h-8.97l1.31,17.57c.09,1.16,1.08,2.05,2.24,2l6.85-.29c.85-.03,1.61-.57,1.92-1.36Z"/>
        <path class="cls-2" d="M263.93,166.37l8.23,4.22c.56.29.96.81,1.08,1.43.12.62-.04,1.25-.45,1.73l-2.93,7.78c-.39.46-.96.72-1.57.73h-46.06c-.57,0-1.11-.23-1.5-.65-.39-.41-.59-.97-.56-1.53l2.81-44.53c.06-1.09.96-1.93,2.05-1.94h13.84c.76,0,1.45.42,1.81,1.08l5.6,10.45c.34.64.32,1.41-.05,2.03s-1.04,1-1.76,1c-.56,0-1.09.23-1.48.63-.39.4-.59.95-.57,1.5l.8,16c.04,1.1.95,1.97,2.05,1.97h13.92c.57,0,1.12-.24,1.5-.65l.78-.84c.63-.67,1.63-.84,2.44-.42Z"/>
        <path class="cls-2" d="M330.88,172.14c.18.9-.06,1.84-.66,2.54l-1.86,6.49c-.56.68-1.4,1.07-2.28,1.06h-43.32c-.83,0-1.62-.34-2.19-.95-.57-.61-.86-1.42-.81-2.25l.31-4.96-.24.07v.02l-.44.14c-.68.24-1.43.17-2.05-.2s-1.05-.98-1.17-1.69l-.51-3.17-1.07-6.58c-.26-1.55.72-3.03,2.25-3.39l2.08-.53c1.28-.3,2.21-1.42,2.27-2.73l1.23-19.6c.11-1.58,1.42-2.8,3-2.81h32.18c.67,0,1.31.22,1.84.63l9.58,7.36c.8.62,1.24,1.61,1.16,2.62-.08,1.01-.66,1.92-1.54,2.41l-7.14,3.94c-.89.48-1.96.49-2.86.02l-3.82-2.03c-.43-.22-.92-.34-1.4-.34h-12.9v.05l.34,2.4c.21,1.48,1.48,2.58,2.98,2.59h10.26c.84,0,1.65.36,2.21.98.57.62.85,1.45.79,2.29l-.22,2.4c-.1,1.17-.88,2.18-1.98,2.57l-12.12,4.38-.44.15-.29.1c.36,1.28,1.52,2.17,2.85,2.18h12.08c.84,0,1.64-.35,2.2-.97.92-.99,2.38-1.24,3.58-.63l6.51,3.34c.82.42,1.4,1.19,1.58,2.1Z"/>
        <path class="cls-2" d="M403.97,134.19c.51-.54,1.22-.85,1.96-.86l14.81.18c.73,0,1.43.29,1.94.82s.79,1.23.77,1.96l-.75,29.75c-.02.62-.25,1.22-.65,1.69l-11.56,13.46c-.51.6-1.26.94-2.05.94h-12.12c-.88,0-1.69-.46-2.15-1.21-.39-.63-1.04-1.06-1.78-1.17-.74-.11-1.48.11-2.04.6l-1.41,1.24c-.49.44-1.13.67-1.79.67h-13.17c-.75,0-1.46-.31-1.98-.86l-12.64-13.52c-.45-.49-.71-1.12-.73-1.78l-.75-29.68c-.02-.73.26-1.44.77-1.96.51-.52,1.21-.82,1.94-.82h13.4c.74,0,1.45.31,1.96.84.51.54.78,1.26.74,2.01l-1.47,27.54c-.07,1.27.76,2.42,1.99,2.76l.32.1c1.67.56,3.51.18,4.82-1,.18-.18.27-.31.27-.42l-2.12-22.93c-.07-.76.18-1.51.7-2.07s1.24-.88,2-.88h11.45c1.44,0,2.63,1.13,2.7,2.57l1.05,20.24c.03.67.32,1.3.79,1.77l2.24,2.24c1.15,1.15,2.26,1.49,3.26.2.22-1.7.22-3.43,0-5.13l-1.45-25.27c-.04-.74.22-1.47.73-2.02Z"/>
        <path class="cls-2" d="M476.53,143.75l1.45,23.12c.05.79-.14,1.58-.54,2.26l-6.58,11.16c-.71,1.21-2.01,1.95-3.41,1.95h-30.44c-1.42,0-2.73-.76-3.44-1.98l-6.68-11.6c-.39-.67-.57-1.45-.52-2.23l1.48-23.44c.07-1.14.63-2.19,1.53-2.89l7.31-5.65c.69-.53,1.54-.83,2.42-.83h27.21c1.07,0,2.09.44,2.84,1.21l6.25,6.41c.66.68,1.05,1.56,1.12,2.51ZM453.02,167.63c2.1,0,3.83-1.62,3.96-3.72l.71-11.45c.07-1.09-.32-2.17-1.07-2.96-.75-.8-1.79-1.25-2.89-1.25h-3.15c-1.1,0-2.14.45-2.89,1.25-.75.8-1.13,1.87-1.07,2.97l.73,11.45c.13,2.09,1.87,3.71,3.96,3.71h1.7Z"/>
        <path class="cls-2" d="M539.23,181.27c-.44.62-1.14.98-1.9.98h-13.31c-.64,0-1.25-.26-1.69-.72-.44-.46-.67-1.08-.65-1.71l.23-5.39c.05-1.1-.68-2.08-1.75-2.36l-9.19-2.38c-.46-.12-.94-.1-1.38.06l-1.89.68-.44.14-.4.15.39,11.45v.09h-20.65c-.65,0-1.26-.27-1.7-.74s-.67-1.1-.63-1.75l.22-3.44-.78.24c-.66.21-1.38.13-1.97-.24-.59-.36-1-.96-1.11-1.65l-.53-3.21-1.2-7.3c-.2-1.2.56-2.35,1.75-2.64l3.18-.78c.99-.24,1.71-1.1,1.77-2.12l1.45-22.83c.08-1.23,1.1-2.19,2.33-2.19h33.03c.52,0,1.02.17,1.42.48l12.23,9.4c.72.55,1.05,1.47.86,2.36l-2.39,10.73c-.18.82-.79,1.48-1.59,1.73l-.53.16c-1.02.32-1.7,1.29-1.64,2.36.06,1.07.83,1.96,1.88,2.17l.17.03c.82.16,1.49.75,1.75,1.54l4.94,14.56c.25.71.13,1.5-.3,2.12ZM517.57,149.15c-.44-.58-1.13-.91-1.85-.91h-10.6v.05l1,7.15,10.19-2.6c.82-.21,1.46-.84,1.68-1.66.19-.7.04-1.45-.41-2.03Z"/>
        <path class="cls-2" d="M584.61,166.37l8.23,4.22c.56.29.96.81,1.08,1.43.12.62-.04,1.25-.45,1.73l-2.93,7.78c-.39.46-.96.72-1.57.73h-46.06c-.57,0-1.11-.23-1.5-.65-.39-.41-.59-.97-.56-1.53l2.81-44.53c.06-1.09.96-1.93,2.05-1.94h13.84c.76,0,1.45.42,1.81,1.08l5.6,10.45c.34.64.32,1.41-.05,2.03s-1.04,1-1.76,1c-.56,0-1.09.23-1.48.63-.39.4-.59.95-.57,1.5l.8,16c.04,1.1.95,1.97,2.05,1.97h13.92c.57,0,1.12-.24,1.5-.65l.78-.84c.63-.67,1.63-.84,2.44-.42Z"/>
        <path class="cls-2" d="M648.55,143.7c.59.45.9,1.17.83,1.91l-2,21.53c-.05.5-.27.97-.62,1.33l-13.17,13.16c-.4.41-.95.63-1.53.63h-33.4c-.6,0-1.17-.25-1.57-.68-.41-.43-.62-1.02-.58-1.61l1.45-22.89c.05-.73-.28-1.44-.87-1.87-.59-.44-1.36-.54-2.05-.28-.66.25-1.41.16-1.99-.24-.58-.4-.93-1.07-.93-1.78v-17.11c0-1.19.97-2.16,2.16-2.16h40.46c.48,0,.94.16,1.32.45l12.49,9.63ZM629.7,166.17l3.01-7.73c.09-.24.14-.49.15-.74l.1-4.58c.02-.78-.38-1.5-1.05-1.9l-4.45-2.66c-.33-.2-.72-.31-1.11-.31h-8.97l1.31,17.57c.09,1.16,1.08,2.05,2.24,2l6.85-.29c.85-.03,1.61-.57,1.92-1.36Z"/>
        <path class="cls-2" d="M717.97,153.87c.63-.44,1.5-.28,1.94.35l6.42,9.1c.24.34.32.78.2,1.19l-4.76,16.76c-.17.6-.72,1.01-1.34,1.01h-45.35c-.39,0-.75-.16-1.02-.44-.26-.28-.4-.66-.37-1.04l2.9-45.83c.05-.73.66-1.31,1.39-1.31h34.26c.31,0,.61.1.85.29l11.95,9.2c.37.29.58.74.54,1.21-.04.47-.31.89-.72,1.12l-10.04,5.55c-.42.22-.91.22-1.33,0l-4.93-2.61c-.2-.11-.42-.16-.65-.16h-13.31l.02.48,1.32,18.28c.05.73.66,1.3,1.39,1.3h10.07l-2.47-3.53c-.28-.3-.42-.7-.37-1.1.04-.4.26-.77.6-1l12.8-8.8Z"/>
        <path class="cls-2" d="M761.88,180.32l-1.13-4.32c-.31-1.19-1.43-2-2.66-1.92l-.48.03c-.68.04-1.32.35-1.78.87s-.69,1.19-.64,1.87l.17,2.66c.05.71-.21,1.41-.69,1.93s-1.17.82-1.88.82h-17.64c-.71,0-1.39-.3-1.88-.82s-.74-1.22-.69-1.93l.05-.83c.05-.74-.23-1.47-.75-1.99-.53-.52-1.25-.8-1.99-.75-.71.05-1.41-.2-1.93-.69-.52-.49-.82-1.17-.82-1.88v-10.07c0-.71.3-1.4.82-1.88.52-.49,1.22-.74,1.93-.69l1.28.08c.69.05,1.36-.18,1.88-.64.52-.46.83-1.1.87-1.78l1.41-22.35c.09-1.36,1.21-2.42,2.58-2.42h26.96c1.07,0,2.03.65,2.42,1.65l16.88,43.47c.31.79.21,1.69-.28,2.39-.48.7-1.28,1.12-2.13,1.12h-17.37c-1.17,0-2.19-.8-2.48-1.93ZM757.18,162.51l-3.83-14.66.91,14.47,2.92.19Z"/>
        <path class="cls-2" d="M863.69,181.6c-.38.41-.92.65-1.48.65h-18.78c-.57,0-1.11-.23-1.49-.65-.39-.41-.58-.97-.55-1.53l.71-11.18c.07-1.05-.68-1.98-1.72-2.15-1.04-.17-2.04.48-2.3,1.5l-2.12,8.09c-.11.42-.08.86.07,1.26l1.8,4.65h-26.56l1.8-4.65c.16-.4.18-.84.07-1.26l-2.12-8.09c-.26-1.02-1.26-1.67-2.3-1.5-1.04.17-1.78,1.1-1.72,2.15l.71,11.18c.04.56-.16,1.12-.55,1.53-.39.41-.93.65-1.49.65h-18.78c-.57,0-1.11-.23-1.49-.65-.39-.41-.58-.97-.55-1.53l2.81-44.54c.07-1.08.96-1.92,2.04-1.92h27.84c.84,0,1.6.52,1.91,1.3l3.19,8.23c.31.79,1.06,1.3,1.91,1.3s1.6-.52,1.91-1.3l3.19-8.23c.31-.79,1.06-1.3,1.91-1.3h27.83c1.08,0,1.97.84,2.04,1.92l2.81,44.54c.04.56-.16,1.11-.54,1.52Z"/>
        <path class="cls-2" d="M923.69,172.14c.18.9-.06,1.84-.66,2.54l-1.86,6.49c-.56.68-1.4,1.07-2.28,1.06h-43.32c-.83,0-1.62-.34-2.19-.95-.57-.61-.86-1.42-.81-2.25l.31-4.96-.24.07v.02l-.44.14c-.68.24-1.43.17-2.05-.2s-1.05-.98-1.17-1.69l-.51-3.17-1.07-6.58c-.26-1.55.72-3.03,2.25-3.39l2.08-.53c1.28-.3,2.21-1.42,2.27-2.73l1.23-19.6c.11-1.58,1.42-2.8,3-2.81h32.18c.67,0,1.31.22,1.84.63l9.58,7.36c.8.62,1.24,1.61,1.16,2.62-.08,1.01-.66,1.92-1.54,2.41l-7.14,3.94c-.89.48-1.96.49-2.86.02l-3.82-2.03c-.43-.22-.92-.34-1.4-.34h-12.9v.05l.34,2.4c.21,1.48,1.48,2.58,2.98,2.59h10.26c.84,0,1.65.36,2.21.98.57.62.85,1.45.79,2.29l-.22,2.4c-.1,1.17-.88,2.18-1.98,2.57l-12.12,4.38-.44.15-.29.1c.36,1.28,1.52,2.17,2.85,2.18h12.08c.84,0,1.64-.35,2.2-.97.92-.99,2.38-1.24,3.58-.63l6.51,3.34c.82.42,1.4,1.19,1.58,2.1Z"/>
      </g>
    </g>
  </g>
</svg>